<svg width="35" height="36" viewBox="0 0 35 36" fill="none" xmlns="http://www.w3.org/2000/svg">
<rect x="0.5" y="1.12988" width="34" height="34" rx="4.5" fill="white"/>
<rect x="0.5" y="1.12988" width="34" height="34" rx="4.5" stroke="#E1DFDF"/>
<g clip-path="url(#clip0_8330_1358)">
<path d="M21.4858 17.8325C21.4575 17.2564 21.3489 16.7087 21.16 16.1892C20.9711 15.6698 20.7114 15.1881 20.3808 14.7442C20.1919 14.9425 19.9747 15.1503 19.7292 15.3675C19.0492 15.9342 18.2653 16.4064 17.3775 16.7842C17.5003 17.0392 17.6089 17.2753 17.7033 17.4925L17.7742 17.6909C18.7847 17.5775 19.885 17.6012 21.075 17.7617L21.4858 17.8325ZM14.8417 12.5484C14.9739 12.7278 15.1108 12.9262 15.2525 13.1434C15.7153 13.8139 16.1356 14.4845 16.5133 15.155L16.7542 15.58C17.5853 15.2495 18.3031 14.8292 18.9075 14.3192C19.1247 14.1398 19.3136 13.9603 19.4742 13.7809C18.9736 13.3653 18.4164 13.0442 17.8025 12.8175C17.1697 12.5814 16.5133 12.4634 15.8333 12.4634C15.5028 12.4634 15.1722 12.4917 14.8417 12.5484ZM10.3508 16.7134C10.7947 16.7039 11.2764 16.6756 11.7958 16.6284C12.9953 16.515 14.1428 16.3214 15.2383 16.0475C14.8417 15.3487 14.4025 14.6403 13.9208 13.9225C13.7131 13.6109 13.5147 13.3181 13.3258 13.0442C12.5892 13.4125 11.9588 13.9155 11.4346 14.553C10.9104 15.1905 10.5492 15.9106 10.3508 16.7134ZM11.4275 21.7C11.7392 21.2467 12.1122 20.7981 12.5467 20.3542C13.6422 19.2303 14.8606 18.4512 16.2017 18.0167L16.2442 18.0025C16.1214 17.7475 16.0081 17.5162 15.9042 17.3084C14.6575 17.6673 13.3117 17.9128 11.8667 18.045C11.2528 18.1017 10.6861 18.13 10.1667 18.13C10.1667 18.8006 10.28 19.4428 10.5067 20.0567C10.7239 20.6517 11.0308 21.1995 11.4275 21.7ZM17.9583 23.3859C17.8828 22.9703 17.7836 22.5359 17.6608 22.0825C17.4247 21.1381 17.1414 20.222 16.8108 19.3342C15.4508 19.8253 14.3081 20.5478 13.3825 21.5017C12.9953 21.8984 12.6836 22.2903 12.4475 22.6775C12.9292 23.0364 13.4581 23.3127 14.0342 23.5063C14.6103 23.6999 15.21 23.7967 15.8333 23.7967C16.57 23.7967 17.2783 23.6598 17.9583 23.3859ZM19.29 22.6209C19.8378 22.1959 20.2958 21.6882 20.6642 21.098C21.0325 20.5077 21.2781 19.8678 21.4008 19.1784C21.1269 19.1028 20.8342 19.0462 20.5225 19.0084C19.7386 18.895 18.9878 18.8856 18.27 18.98C18.5817 19.8489 18.8461 20.732 19.0633 21.6292C19.1483 21.9787 19.2239 22.3092 19.29 22.6209ZM15.8333 25.2134C14.87 25.2134 13.9492 25.0292 13.0708 24.6609C12.2303 24.302 11.4818 23.7944 10.8254 23.138C10.169 22.4816 9.66139 21.7331 9.3025 20.8925C8.93417 20.0142 8.75 19.0934 8.75 18.13C8.75 17.1667 8.93417 16.2459 9.3025 15.3675C9.66139 14.527 10.169 13.7785 10.8254 13.1221C11.4818 12.4657 12.2303 11.9581 13.0708 11.5992C13.9492 11.2309 14.87 11.0467 15.8333 11.0467C16.7967 11.0467 17.7175 11.2309 18.5958 11.5992C19.4364 11.9581 20.1849 12.4657 20.8413 13.1221C21.4976 13.7785 22.0053 14.527 22.3642 15.3675C22.7325 16.2459 22.9167 17.1667 22.9167 18.13C22.9167 19.0934 22.7325 20.0142 22.3642 20.8925C22.0053 21.7331 21.4976 22.4816 20.8413 23.138C20.1849 23.7944 19.4364 24.302 18.5958 24.6609C17.7175 25.0292 16.7967 25.2134 15.8333 25.2134Z" fill="black"/>
</g>
<defs>
<clipPath id="clip0_8330_1358">
<rect width="17.48" height="17" fill="white" transform="matrix(1 0 0 -1 8.75 26.6299)"/>
</clipPath>
</defs>
</svg>
