<svg width="35" height="36" viewBox="0 0 35 36" fill="none" xmlns="http://www.w3.org/2000/svg">
<rect x="0.5" y="1.12988" width="34" height="34" rx="4.5" fill="white"/>
<rect x="0.5" y="1.12988" width="34" height="34" rx="4.5" stroke="#E1DFDF"/>
<g clip-path="url(#clip0_8330_1352)">
<path d="M13 16.7132H16.1875L15.8333 18.1299H13V24.5049H11.5833V18.1299H8.75V16.7132H11.5833V15.3815C11.5833 14.7865 11.6117 14.3238 11.6683 13.9932C11.725 13.7193 11.8194 13.4549 11.9517 13.1999C12.2067 12.7371 12.5656 12.3829 13.0283 12.1374C13.2739 11.9957 13.5383 11.9013 13.8217 11.854C14.1522 11.7879 14.615 11.7549 15.21 11.7549C15.5783 11.7549 15.8994 11.7879 16.1733 11.854V13.1715H15.21C14.7567 13.1715 14.4285 13.1857 14.2254 13.214C14.0224 13.2424 13.8453 13.299 13.6942 13.384C13.4769 13.4974 13.3117 13.6579 13.1983 13.8657C13.1228 14.0168 13.0708 14.1939 13.0425 14.397C13.0142 14.6 12.9953 14.9282 12.9858 15.3815V16.7132H13Z" fill="black"/>
</g>
<defs>
<clipPath id="clip0_8330_1352">
<rect width="17.48" height="17" fill="white" transform="matrix(1 0 0 -1 8.75 26.6299)"/>
</clipPath>
</defs>
</svg>
