<svg width="35" height="36" viewBox="0 0 35 36" fill="none" xmlns="http://www.w3.org/2000/svg">
<rect x="0.5" y="1.12988" width="34" height="34" rx="4.5" fill="white"/>
<rect x="0.5" y="1.12988" width="34" height="34" rx="4.5" stroke="#E1DFDF"/>
<g clip-path="url(#clip0_8330_1361)">
<path d="M15.8333 16.005C15.4461 16.005 15.0896 16.0995 14.7638 16.2884C14.4379 16.4773 14.1806 16.7346 13.9917 17.0605C13.8028 17.3863 13.7083 17.7428 13.7083 18.13C13.7083 18.5173 13.8028 18.8738 13.9917 19.1996C14.1806 19.5255 14.4379 19.7828 14.7638 19.9717C15.0896 20.1606 15.4461 20.255 15.8333 20.255C16.2206 20.255 16.5771 20.1606 16.9029 19.9717C17.2288 19.7828 17.4861 19.5255 17.675 19.1996C17.8639 18.8738 17.9583 18.5173 17.9583 18.13C17.9583 17.7428 17.8639 17.3863 17.675 17.0605C17.4861 16.7346 17.2288 16.4773 16.9029 16.2884C16.5771 16.0995 16.2206 16.005 15.8333 16.005ZM15.8333 14.5884C16.4756 14.5884 17.0682 14.7466 17.6112 15.063C18.1543 15.3794 18.584 15.8091 18.9004 16.3521C19.2168 16.8952 19.375 17.4878 19.375 18.13C19.375 18.7723 19.2168 19.3649 18.9004 19.908C18.584 20.451 18.1543 20.8807 17.6112 21.1971C17.0682 21.5135 16.4756 21.6717 15.8333 21.6717C15.1911 21.6717 14.5985 21.5135 14.0554 21.1971C13.5124 20.8807 13.0826 20.451 12.7663 19.908C12.4499 19.3649 12.2917 18.7723 12.2917 18.13C12.2917 17.4878 12.4499 16.8952 12.7663 16.3521C13.0826 15.8091 13.5124 15.3794 14.0554 15.063C14.5985 14.7466 15.1911 14.5884 15.8333 14.5884ZM20.4375 14.4042C20.4375 14.6498 20.3501 14.8599 20.1754 15.0346C20.0007 15.2094 19.7929 15.2967 19.5521 15.2967C19.3113 15.2967 19.1035 15.2094 18.9288 15.0346C18.754 14.8599 18.6667 14.6521 18.6667 14.4113C18.6667 14.1705 18.754 13.9627 18.9288 13.788C19.1035 13.6132 19.3113 13.5259 19.5521 13.5259C19.7929 13.5259 20.0007 13.6132 20.1754 13.788C20.3501 13.9627 20.4375 14.1681 20.4375 14.4042ZM15.8333 12.4634C14.9644 12.4634 14.3742 12.4657 14.0625 12.4705C13.7508 12.4752 13.3919 12.487 12.9858 12.5059C12.4758 12.5248 12.0508 12.6003 11.7108 12.7325C11.4181 12.8459 11.1607 13.0135 10.9388 13.2355C10.7168 13.4574 10.5492 13.7148 10.4358 14.0075C10.3036 14.3475 10.2281 14.7725 10.2092 15.2825C10.1903 15.6698 10.1785 16.0169 10.1738 16.3238C10.169 16.6307 10.1667 17.2328 10.1667 18.13C10.1667 18.9989 10.169 19.5892 10.1738 19.9009C10.1785 20.2125 10.1903 20.5714 10.2092 20.9775C10.2281 21.4875 10.3036 21.9125 10.4358 22.2525C10.5492 22.5453 10.7168 22.8027 10.9388 23.0246C11.1607 23.2466 11.4181 23.4095 11.7108 23.5134C12.0508 23.655 12.4758 23.7353 12.9858 23.7542C13.3731 23.7731 13.7201 23.7849 14.0271 23.7896C14.334 23.7944 14.9361 23.7967 15.8333 23.7967C16.7022 23.7967 17.2925 23.7944 17.6042 23.7896C17.9158 23.7849 18.2747 23.7731 18.6808 23.7542C19.1908 23.7353 19.6158 23.6598 19.9558 23.5275C20.2486 23.4142 20.506 23.2466 20.7279 23.0246C20.9499 22.8027 21.1128 22.5453 21.2167 22.2525C21.3583 21.9125 21.4386 21.4875 21.4575 20.9775C21.4764 20.5903 21.4882 20.2432 21.4929 19.9363C21.4976 19.6294 21.5 19.0273 21.5 18.13C21.5 17.2612 21.4976 16.6709 21.4929 16.3592C21.4882 16.0475 21.4764 15.6887 21.4575 15.2825C21.4386 14.7725 21.3631 14.3475 21.2308 14.0075C21.1175 13.7148 20.9499 13.4574 20.7279 13.2355C20.506 13.0135 20.2486 12.8459 19.9558 12.7325C19.6158 12.6003 19.1908 12.5248 18.6808 12.5059C18.2936 12.487 17.9465 12.4752 17.6396 12.4705C17.3326 12.4657 16.7306 12.4634 15.8333 12.4634ZM15.8333 11.0467C16.7589 11.0467 17.3917 11.0514 17.7317 11.0609C18.015 11.0609 18.355 11.0703 18.7517 11.0892C19.4128 11.1175 19.9842 11.2262 20.4658 11.415C20.9475 11.6039 21.3678 11.8778 21.7267 12.2367C22.0856 12.5956 22.3594 13.0159 22.5483 13.4975C22.7372 13.9792 22.8458 14.5506 22.8742 15.2117C22.8931 15.6178 22.9025 15.9578 22.9025 16.2317C22.9119 16.5906 22.9167 17.2281 22.9167 18.1442C22.9167 19.0603 22.9119 19.6884 22.9025 20.0284C22.9025 20.3117 22.8931 20.6517 22.8742 21.0484C22.8458 21.7095 22.7372 22.2809 22.5483 22.7625C22.3594 23.2442 22.0856 23.6645 21.7267 24.0234C21.3678 24.3823 20.9475 24.6562 20.4658 24.845C19.9842 25.0339 19.4128 25.1425 18.7517 25.1709C18.3456 25.1898 18.0056 25.1992 17.7317 25.1992C17.3728 25.2087 16.7353 25.2134 15.8192 25.2134C14.9031 25.2134 14.275 25.2087 13.935 25.1992C13.6517 25.1992 13.3117 25.1898 12.915 25.1709C12.2539 25.1425 11.6825 25.0339 11.2008 24.845C10.7192 24.6562 10.2989 24.3823 9.94 24.0234C9.58111 23.6645 9.30722 23.2442 9.11833 22.7625C8.92944 22.2809 8.82083 21.7095 8.7925 21.0484C8.77361 20.6423 8.76417 20.3023 8.76417 20.0284C8.75472 19.6695 8.75 19.032 8.75 18.1159C8.75 17.1998 8.75472 16.5717 8.76417 16.2317C8.76417 15.9484 8.77361 15.6084 8.7925 15.2117C8.82083 14.5506 8.92944 13.9792 9.11833 13.4975C9.30722 13.0159 9.58111 12.5956 9.94 12.2367C10.2989 11.8778 10.7192 11.6039 11.2008 11.415C11.6825 11.2262 12.2539 11.1175 12.915 11.0892C13.3211 11.0703 13.6611 11.0609 13.935 11.0609C14.2939 11.0514 14.9267 11.0467 15.8333 11.0467Z" fill="black"/>
</g>
<defs>
<clipPath id="clip0_8330_1361">
<rect width="17.48" height="17" fill="white" transform="matrix(1 0 0 -1 8.75 26.6299)"/>
</clipPath>
</defs>
</svg>
