<svg width="147" height="56" viewBox="0 0 147 56" fill="none" xmlns="http://www.w3.org/2000/svg">
<path d="M55.2737 36.4982C55.039 36.4982 54.8044 36.4022 54.5697 36.2102C54.3457 36.0289 54.1484 35.7249 53.9777 35.2982C53.807 34.8715 53.6897 34.3062 53.6257 33.6022C53.5724 33.1755 53.4657 32.8395 53.3057 32.5942C53.167 32.4022 53.0977 32.1995 53.0977 31.9862C53.0977 31.8262 53.1617 31.6395 53.2897 31.4262C53.3537 31.3302 53.3964 31.2289 53.4177 31.1222C53.4497 31.0155 53.4657 30.8289 53.4657 30.5622L53.4177 28.1942C53.4177 27.8849 53.3217 27.6022 53.1297 27.3462C52.9164 27.0475 52.8097 26.7755 52.8097 26.5302C52.8097 26.3382 52.8524 26.1622 52.9377 26.0022C53.023 25.8422 53.119 25.6875 53.2257 25.5382C53.3324 25.3889 53.4177 25.2449 53.4817 25.1062C53.567 24.9035 53.7164 24.7382 53.9297 24.6102C54.143 24.4822 54.3617 24.4182 54.5857 24.4182C54.7564 24.4182 54.9164 24.4609 55.0657 24.5462C55.215 24.6209 55.4817 24.6582 55.8657 24.6582C56.2604 24.6582 56.735 24.6369 57.2897 24.5942C57.951 24.5409 58.607 24.5142 59.2577 24.5142C59.6737 24.5142 60.063 24.5355 60.4257 24.5782C60.7884 24.6209 61.0977 24.7009 61.3537 24.8182C61.6204 24.9249 61.8177 25.0742 61.9457 25.2662C62.0737 25.4475 62.1377 25.6289 62.1377 25.8102C62.1377 26.0555 62.0417 26.2742 61.8497 26.4662C61.6577 26.6475 61.3857 26.7382 61.0337 26.7382L60.7617 26.7222C60.335 26.6689 59.903 26.6422 59.4657 26.6422C58.5804 26.6422 57.695 26.7115 56.8097 26.8502H56.7937C56.495 26.8715 56.303 26.9195 56.2177 26.9942C56.1324 27.0582 56.0897 27.2449 56.0897 27.5542L56.1057 28.6742H56.1697C56.1697 28.9515 56.1644 29.1915 56.1537 29.3942V29.7622C56.1537 30.0182 56.175 30.1889 56.2177 30.2742C56.2604 30.3489 56.351 30.3862 56.4897 30.3862C56.5964 30.3862 56.719 30.3755 56.8577 30.3542C57.007 30.3329 57.1724 30.3169 57.3537 30.3062L58.1057 30.2422C58.6604 30.1889 59.087 30.1622 59.3857 30.1622C59.7484 30.1622 60.0417 30.2315 60.2657 30.3702C60.6284 30.6262 60.8097 30.9089 60.8097 31.2182C60.8097 31.4849 60.687 31.7302 60.4417 31.9542C60.207 32.1782 59.8657 32.3222 59.4177 32.3862L58.1537 32.5302C57.3644 32.5942 56.831 32.6689 56.5537 32.7542C56.2764 32.8395 56.1377 33.0315 56.1377 33.3302C56.1377 33.5115 56.1697 33.7622 56.2337 34.0822C56.3297 34.6262 56.3777 34.9835 56.3777 35.1542C56.3777 35.5382 56.2657 35.8582 56.0417 36.1142C55.8177 36.3702 55.5617 36.4982 55.2737 36.4982ZM76.5883 36.5142C76.055 36.5142 75.5483 36.3915 75.0683 36.1462C74.5883 35.9009 74.1777 35.5169 73.8363 34.9942C73.3243 34.1835 73.0683 33.1649 73.0683 31.9382C73.0683 31.3622 73.111 30.7755 73.1963 30.1782C73.2817 29.5702 73.3777 28.9729 73.4843 28.3862C73.5803 27.8635 73.6657 27.3622 73.7403 26.8822C73.815 26.3915 73.8523 25.9382 73.8523 25.5222V25.4102C73.8417 25.1115 73.6283 24.9622 73.2123 24.9622C72.679 24.9622 71.975 25.1595 71.1003 25.5542C70.2363 25.9489 69.5377 26.3542 69.0043 26.7702C68.6737 27.0155 68.5083 27.2235 68.5083 27.3942C68.5083 27.4795 68.5563 27.5809 68.6523 27.6982C68.759 27.8049 68.903 27.9382 69.0843 28.0982C69.3723 28.3435 69.751 28.7222 70.2203 29.2342C70.9243 30.0235 71.2763 30.8609 71.2763 31.7462C71.2763 32.7275 70.9083 33.5915 70.1723 34.3382C69.2123 35.3089 68.0603 35.7942 66.7163 35.7942C65.8203 35.7942 65.1003 35.5649 64.5563 35.1062C64.0123 34.6369 63.6177 34.0289 63.3723 33.2822C63.127 32.5355 63.0043 31.7515 63.0043 30.9302C63.0043 30.0449 63.1217 29.1915 63.3563 28.3702C63.591 27.5382 63.911 26.8555 64.3163 26.3222C64.7217 25.7889 65.1697 25.5222 65.6603 25.5222C65.799 25.5222 65.9377 25.5435 66.0763 25.5862H66.0923C66.2097 25.5862 66.4923 25.4155 66.9403 25.0742C67.3457 24.7649 67.863 24.4129 68.4923 24.0182C69.1323 23.6129 69.847 23.2609 70.6363 22.9622C71.4363 22.6529 72.279 22.4982 73.1643 22.4982C73.463 22.4982 73.767 22.5195 74.0763 22.5622C74.8123 22.6902 75.3457 22.9355 75.6763 23.2982C76.0177 23.6502 76.2363 24.0502 76.3323 24.4982C76.439 24.9462 76.4977 25.3729 76.5083 25.7782C76.5297 26.0875 76.5617 26.3435 76.6043 26.5462C76.6577 26.7489 76.759 26.8662 76.9083 26.8982C77.6977 27.0369 78.455 27.3195 79.1803 27.7462C79.9057 28.1729 80.5083 28.7115 80.9883 29.3622C81.4683 30.0022 81.7083 30.7062 81.7083 31.4742C81.7083 31.8262 81.6497 32.1835 81.5323 32.5462C81.095 33.7515 80.407 34.7115 79.4683 35.4262C78.5297 36.1515 77.5697 36.5142 76.5883 36.5142ZM67.0843 32.8182C67.3937 32.8182 67.6763 32.6955 67.9323 32.4502C68.199 32.1942 68.3323 31.9169 68.3323 31.6182C68.3323 31.4902 68.3003 31.3622 68.2363 31.2342C68.119 31.0529 67.8097 30.6955 67.3083 30.1622C66.7003 29.5222 66.295 29.2022 66.0923 29.2022C65.943 29.2022 65.8683 29.6395 65.8683 30.5142C65.8683 31.3782 65.991 31.9809 66.2363 32.3222C66.4923 32.6529 66.775 32.8182 67.0843 32.8182ZM76.8603 33.5702C77.2657 33.5702 77.6763 33.3355 78.0923 32.8662C78.5083 32.3862 78.7163 31.9169 78.7163 31.4582C78.7163 31.2022 78.631 30.9782 78.4603 30.7862C77.8737 30.1569 77.1323 29.6929 76.2363 29.3942C76.0443 30.3755 75.9483 31.1702 75.9483 31.7782C75.9483 32.4395 76.039 32.9035 76.2203 33.1702C76.4017 33.4369 76.615 33.5702 76.8603 33.5702ZM92.4043 36.3382C92.0523 36.3382 91.7323 36.1835 91.4443 35.8742C91.1989 35.5542 91.0283 35.2129 90.9323 34.8502C90.8469 34.4769 90.7883 34.0769 90.7563 33.6502C90.7243 33.2129 90.6549 32.7435 90.5483 32.2422C90.4096 32.2635 90.2656 32.4182 90.1163 32.7062C89.9883 33.0369 89.6256 33.5702 89.0283 34.3062C88.0256 35.4475 87.0176 36.0182 86.0043 36.0182C85.1296 36.0182 84.3989 35.6449 83.8123 34.8982C83.2256 34.1409 82.9323 33.2555 82.9323 32.2422C82.9323 31.6022 83.0709 30.9515 83.3483 30.2902C83.9563 28.8395 85.2203 27.7089 87.1403 26.8982C87.8549 26.6209 88.4576 26.4822 88.9483 26.4822C89.0123 26.4822 89.0709 26.4875 89.1243 26.4982H89.2683C89.4069 26.4982 89.5136 26.4662 89.5883 26.4022C89.6629 26.3275 89.7216 26.1675 89.7643 25.9222C89.8176 25.6662 89.8763 25.2715 89.9403 24.7382C90.0043 24.2049 90.1056 23.4849 90.2443 22.5782C90.3296 22.0769 90.4949 21.7089 90.7403 21.4742C90.9963 21.2289 91.2789 21.1062 91.5883 21.1062C91.8656 21.1062 92.1323 21.1969 92.3883 21.3782C92.8149 21.7409 93.0763 22.5355 93.1723 23.7622C93.2469 24.7649 93.2843 25.9009 93.2843 27.1702V28.0342C93.2843 29.1755 93.3003 30.3169 93.3323 31.4582C93.3749 32.5995 93.4709 33.6662 93.6203 34.6582C93.6416 34.7755 93.6523 34.8875 93.6523 34.9942C93.6523 35.4315 93.5243 35.7622 93.2683 35.9862C93.0123 36.2209 92.7243 36.3382 92.4043 36.3382ZM86.1003 33.4102C86.6549 33.4102 87.3003 32.7382 88.0363 31.3942C88.3029 30.9035 88.5429 30.4129 88.7563 29.9222C88.9696 29.4209 89.0763 29.0475 89.0763 28.8022C89.0763 28.6529 89.0229 28.5782 88.9163 28.5782L88.8043 28.5942C88.0043 28.9142 87.3589 29.3035 86.8683 29.7622C86.3883 30.2209 86.0363 30.6955 85.8123 31.1862C85.5989 31.6769 85.4923 32.1089 85.4923 32.4822C85.4923 32.7595 85.5456 32.9835 85.6523 33.1542C85.7589 33.3249 85.9083 33.4102 86.1003 33.4102ZM99.531 36.5782C98.8377 36.5782 98.3843 35.9169 98.171 34.5942C98.0217 33.7195 97.9417 32.3915 97.931 30.6102C97.931 29.6502 97.899 28.8342 97.835 28.1622C97.7817 27.4902 97.6217 27.1542 97.355 27.1542C96.8003 27.1969 96.3203 27.2769 95.915 27.3942C95.5843 27.5009 95.291 27.5542 95.035 27.5542C94.8217 27.5542 94.635 27.5009 94.475 27.3942C94.315 27.2769 94.1657 27.0689 94.027 26.7702C93.931 26.5569 93.883 26.3649 93.883 26.1942C93.883 25.7569 94.1497 25.4262 94.683 25.2022C95.2057 24.9782 95.883 24.8182 96.715 24.7222C97.547 24.6155 98.4483 24.5302 99.419 24.4662C100.902 24.3809 102.272 24.2209 103.531 23.9862C103.648 23.9649 103.766 23.9542 103.883 23.9542C104.246 23.9542 104.539 24.0609 104.763 24.2742C104.998 24.4769 105.115 24.7115 105.115 24.9782C105.115 25.2555 104.971 25.5275 104.683 25.7942C104.406 26.0502 103.936 26.2422 103.275 26.3702C102.486 26.5089 101.862 26.5942 101.403 26.6262C100.955 26.6582 100.646 26.7115 100.475 26.7862C100.304 26.8609 100.219 27.0529 100.219 27.3622C100.219 27.5862 100.246 27.8955 100.299 28.2902C100.406 28.9835 100.486 30.1035 100.539 31.6502C100.56 32.4929 100.592 33.2022 100.635 33.7782C100.678 34.2902 100.699 34.7222 100.699 35.0742C100.699 35.5009 100.646 35.8262 100.539 36.0502C100.432 36.2742 100.23 36.4289 99.931 36.5142C99.7923 36.5569 99.659 36.5782 99.531 36.5782ZM106.899 36.2902C106.035 36.2902 105.502 35.9329 105.299 35.2182C105.16 34.7489 105.091 34.2209 105.091 33.6342C105.091 33.1649 105.107 32.6849 105.139 32.1942C105.171 31.7462 105.187 31.3409 105.187 30.9782C105.187 30.5942 105.155 30.2742 105.091 30.0182C104.942 29.4742 104.867 28.9195 104.867 28.3542V27.6182C104.867 27.3302 104.963 27.0795 105.155 26.8662C105.358 26.6529 105.603 26.5462 105.891 26.5462C106.126 26.5462 106.376 26.6422 106.643 26.8342C106.91 27.0155 107.096 27.2609 107.203 27.5702C107.246 27.6982 107.294 27.7622 107.347 27.7622C107.432 27.7622 107.619 27.6502 107.907 27.4262C108.622 26.8822 109.315 26.4929 109.987 26.2582C110.659 26.0235 111.272 25.9062 111.827 25.9062C112.51 25.9062 113.059 26.0502 113.475 26.3382C113.902 26.6155 114.115 26.9569 114.115 27.3622C114.115 27.5115 114.083 27.6662 114.019 27.8262C113.902 28.0929 113.763 28.2742 113.603 28.3702C113.443 28.4662 113.267 28.5142 113.075 28.5142C112.915 28.5142 112.739 28.4982 112.547 28.4662C112.355 28.4235 112.158 28.4022 111.955 28.4022C111.774 28.4022 111.587 28.4342 111.395 28.4982C110.35 28.9142 109.587 29.4422 109.107 30.0822C108.638 30.7222 108.334 31.3995 108.195 32.1142C108.067 32.8182 107.998 33.4849 107.987 34.1142C107.966 34.5302 107.928 34.9035 107.875 35.2342C107.832 35.5649 107.736 35.8209 107.587 36.0022C107.448 36.1942 107.219 36.2902 106.899 36.2902ZM118.347 36.2262C117.557 36.2262 116.907 36.0075 116.395 35.5702C115.883 35.1435 115.499 34.5782 115.243 33.8742C114.997 33.1702 114.875 32.4182 114.875 31.6182C114.875 30.4235 115.136 29.2715 115.659 28.1622C116.192 27.0529 116.971 26.2635 117.995 25.7942C118.315 25.6662 118.587 25.6022 118.811 25.6022C119.067 25.6022 119.275 25.6555 119.435 25.7622C119.605 25.8582 119.76 25.9649 119.899 26.0822C120.08 26.2529 120.267 26.3649 120.459 26.4182C121.333 26.6422 121.995 27.2182 122.443 28.1462C122.891 29.0742 123.131 30.0342 123.163 31.0262C122.949 32.6582 122.379 33.9115 121.451 34.7862C120.448 35.7462 119.413 36.2262 118.347 36.2262ZM118.379 33.2822C118.485 33.2822 118.603 33.2502 118.731 33.1862C119.125 32.9622 119.44 32.6315 119.675 32.1942C119.92 31.7462 120.043 31.2822 120.043 30.8022L120.027 30.4822C119.973 30.0235 119.845 29.6129 119.643 29.2502C119.451 28.8875 119.125 28.4609 118.667 27.9702C118.325 28.2049 118.059 28.6582 117.867 29.3302C117.685 30.0022 117.595 30.6795 117.595 31.3622C117.595 31.8849 117.653 32.3382 117.771 32.7222C117.899 33.0955 118.101 33.2822 118.379 33.2822ZM128.645 37.6022C127.866 37.6022 127.2 37.0209 126.645 35.8582C126.282 35.0795 125.888 33.9009 125.461 32.3222C125.248 31.4689 125.029 30.7435 124.805 30.1462C124.549 29.4422 124.421 28.8769 124.421 28.4502C124.421 28.0235 124.517 27.7142 124.709 27.5222C124.901 27.3302 125.125 27.2342 125.381 27.2342C125.648 27.2342 125.914 27.3249 126.181 27.5062C126.448 27.6875 126.645 27.9275 126.773 28.2262C127.349 29.7089 127.77 30.9302 128.037 31.8902C128.197 32.4342 128.33 32.8609 128.437 33.1702C128.554 33.4689 128.677 33.6182 128.805 33.6182C128.986 33.6182 129.232 33.2182 129.541 32.4182C129.786 31.8102 130.309 30.3382 131.109 28.0022C131.333 27.3942 131.594 26.9569 131.893 26.6902C132.192 26.4129 132.485 26.2742 132.773 26.2742C133.061 26.2742 133.306 26.3915 133.509 26.6262C133.712 26.8502 133.813 27.1542 133.813 27.5382C133.813 27.7195 133.781 27.9169 133.717 28.1302C133.333 29.4849 132.917 30.8182 132.469 32.1302C132.032 33.4315 131.562 34.5569 131.061 35.5062C130.57 36.4662 130.058 37.0902 129.525 37.3782C129.205 37.5275 128.912 37.6022 128.645 37.6022ZM140.421 36.3542H139.973C138.747 36.3542 137.749 36.1142 136.981 35.6342C136.224 35.1542 135.664 34.5302 135.301 33.7622C134.949 32.9835 134.773 32.1515 134.773 31.2662C134.773 30.4769 134.901 29.6875 135.157 28.8982C135.424 28.1089 135.792 27.3942 136.261 26.7542C136.741 26.1035 137.312 25.5862 137.973 25.2022C138.645 24.8075 139.387 24.6102 140.197 24.6102C140.443 24.6102 140.699 24.6315 140.965 24.6742C141.925 24.8449 142.613 25.1969 143.029 25.7302C143.456 26.2529 143.669 26.8342 143.669 27.4742C143.669 28.0929 143.509 28.7009 143.189 29.2982C142.869 29.8955 142.437 30.3915 141.893 30.7862C141.349 31.1809 140.741 31.3782 140.069 31.3782C139.525 31.3782 138.955 31.2129 138.357 30.8822C138.315 30.8609 138.267 30.8342 138.213 30.8022C138.171 30.7702 138.123 30.7435 138.069 30.7222C138.027 30.6902 137.984 30.6742 137.941 30.6742C137.856 30.6742 137.813 30.8395 137.813 31.1702C137.813 31.8209 138.059 32.3595 138.549 32.7862C139.051 33.2129 139.675 33.4262 140.421 33.4262C141.157 33.4262 141.899 33.2129 142.645 32.7862C142.827 32.6902 143.003 32.6049 143.173 32.5302C143.355 32.4555 143.563 32.4182 143.797 32.4182L144.005 32.4342C144.4 32.4769 144.693 32.5942 144.885 32.7862C145.077 32.9675 145.173 33.1862 145.173 33.4422C145.173 33.8262 144.976 34.2475 144.581 34.7062C144.197 35.1649 143.648 35.5542 142.933 35.8742C142.219 36.1942 141.381 36.3542 140.421 36.3542ZM140.037 29.1222C140.101 29.1222 140.187 29.0955 140.293 29.0422C140.613 28.8822 140.848 28.6955 140.997 28.4822C141.147 28.2689 141.221 28.0609 141.221 27.8582C141.221 27.6555 141.157 27.4849 141.029 27.3462C140.901 27.1969 140.715 27.1222 140.469 27.1222C140.107 27.1222 139.712 27.2929 139.285 27.6342C138.869 27.9755 138.661 28.2369 138.661 28.4182C138.661 28.5035 138.72 28.5515 138.837 28.5622C139.2 28.5942 139.488 28.7169 139.701 28.9302C139.819 29.0582 139.931 29.1222 140.037 29.1222Z" fill="black"/>
<path d="M37.4417 42.622C29.4962 48.0343 18.6291 45.9726 13.2175 38.0281C7.80589 30.0836 9.86594 19.2162 17.8114 13.8039C25.7569 8.3916 36.624 10.4534 42.0356 18.3978C47.4472 26.3423 45.3861 37.2105 37.4417 42.622ZM18.52 14.8441C11.1484 19.8654 9.23736 29.9472 14.2587 37.3188C19.2801 44.6904 29.3626 46.6025 36.7331 41.5819C44.1037 36.5612 46.0168 26.478 40.9954 19.1064C35.9741 11.7348 25.8916 9.82274 18.52 14.8441Z" fill="#CDCDCD"/>
<path d="M39.8976 16.5744L39.3728 16.5748C38.8837 16.5749 38.4453 16.5194 38.1108 16.4577C38.1579 16.1195 38.2927 15.5311 38.3988 15.1317L38.5334 14.6245L38.0232 14.7455C37.4381 14.8844 36.9044 14.9224 36.5791 14.9294L36.5702 14.901C36.5022 14.6953 36.4746 13.8619 36.4755 13.3346L36.4768 12.8101L36.0132 13.0569C35.628 13.2623 35.2549 13.4084 34.9594 13.5076C35.0006 13.079 35.065 12.6405 35.067 12.6347L35.144 12.1156L34.6509 12.2925C34.0456 12.5097 33.4877 12.6047 33.1669 12.6447C33.0867 12.1637 33.0326 11.5269 33.0322 11.5197L32.9867 10.997L32.5469 11.2831C32.264 11.4668 31.9859 11.6157 31.7397 11.7324C31.9284 10.7847 31.9993 10.0672 31.9537 9.5972C31.828 8.31147 31.7156 5.35134 31.6981 4.87414C31.7145 4.69341 31.6667 4.34788 31.1499 4.05175C30.8417 3.8746 30.4292 3.75353 29.9865 3.71152C29.3634 3.65136 28.7849 3.75584 28.4395 3.9911C28.2878 4.09442 28.1811 4.22411 28.1269 4.3691C27.9335 4.64033 27.5796 5.29252 27.7141 6.29168C27.7775 6.75707 27.9078 7.26995 28.0457 7.8137C28.2587 8.65283 28.4796 9.52111 28.4293 10.172C28.3985 10.5651 28.2344 11.247 27.9504 12.1561C27.7048 11.9408 27.2638 11.4565 26.9785 11.1213L26.6374 10.7219L26.4466 11.2105C26.2571 11.6967 26.027 12.1055 25.8469 12.3917C25.4913 12.0878 25.1002 11.7075 25.0957 11.7031L24.7199 11.3364L24.5743 11.8407C24.4463 12.2849 24.2817 12.6732 24.1364 12.9687C23.7722 12.7997 23.2329 12.4903 23.0122 12.3601L22.5607 12.0916L22.537 12.6163C22.5167 13.0622 22.4513 13.4639 22.3822 13.781C21.9323 13.6359 21.4105 13.4272 21.4046 13.4252L20.9178 13.2302L20.9759 13.7517C21.0359 14.287 21.0201 14.7703 20.9936 15.1035C20.6604 15.0814 20.0361 14.9755 19.6167 14.8906L19.1029 14.786L19.253 15.2884C19.4056 15.7966 19.4767 16.2688 19.5089 16.5979C19.1856 16.6321 18.5255 16.6256 18.0837 16.607L17.5597 16.5844L17.7877 17.0577C18.0388 17.5783 18.1892 18.0745 18.2691 18.3967C17.922 18.4201 17.3513 18.4127 16.9563 18.3967L16.4323 18.3741L16.6605 18.8457C16.9468 19.44 17.1005 19.9939 17.1711 20.3044C16.8454 20.3792 16.2171 20.4591 15.7893 20.4984L15.2671 20.5466L15.5562 20.9843C15.874 21.464 16.0885 21.9331 16.2122 22.2403C15.9278 22.347 15.2391 22.5011 14.7818 22.5875L14.2662 22.6852L14.5957 23.0939C14.9648 23.5522 15.2235 24.0046 15.375 24.302C15.0526 24.4586 14.477 24.6752 14.1226 24.798L13.627 24.9691L14.0119 25.325C14.3629 25.6486 14.6431 25.9828 14.8386 26.2412C14.4722 26.4038 13.9633 26.5884 13.7484 26.6628L13.2528 26.8338L13.6378 27.1898C14.0738 27.5919 14.4005 28.01 14.5893 28.276C14.1414 28.4731 13.5261 28.6866 13.5186 28.6888L13.023 28.8598L13.4079 29.2157C13.7672 29.5471 14.0509 29.8865 14.2538 30.1579C14.1395 30.2523 13.9477 30.3979 13.6269 30.6164C13.3646 30.7951 13.1444 30.9346 13.1424 30.936L12.6991 31.2169L13.1564 31.4741C13.679 31.7678 14.0964 32.103 14.3418 32.32L14.3296 32.3463C14.2387 32.5432 13.6934 33.1743 13.3354 33.5607L12.9778 33.9453L13.4853 34.0782C13.9078 34.1895 14.28 34.335 14.5654 34.4632C14.2442 34.7495 13.8979 35.0274 13.8935 35.0319L13.4841 35.3603L13.9672 35.5653C14.4784 35.7827 14.8996 36.042 15.1801 36.2335C15.0049 36.5269 14.6479 37.0161 14.3929 37.3444L14.0707 37.7589L14.5885 37.8473C15.0329 37.9227 15.4282 38.0405 15.7261 38.1451C15.6727 38.417 15.4004 39.1186 15.2075 39.5666L15.0001 40.0485L15.5228 40.003C15.9908 39.9633 16.4188 39.9793 16.741 40.0074C16.5827 40.3102 16.2562 40.8177 16.0213 41.1578L15.7233 41.5903L16.2449 41.6491C16.7308 41.7037 17.1607 41.8085 17.4857 41.9067C17.4006 42.2377 17.1999 42.8065 17.05 43.1922L16.8599 43.6818L17.3807 43.6181C17.9763 43.5454 18.511 43.5683 18.8367 43.597L18.8428 43.6259C18.8872 43.8387 18.8216 44.6696 18.7607 45.1926L18.7003 45.7139L19.1884 45.5209C19.5947 45.3597 19.982 45.2564 20.2864 45.1901C20.1977 45.6106 20.0833 46.0396 20.0831 46.0458L19.9485 46.553L20.4587 46.432C21.0005 46.3045 21.4947 46.2635 21.8316 46.2515C21.8635 46.5914 21.8672 47.198 21.8555 47.6126L21.8418 48.1365L22.3103 47.9014C22.8182 47.647 23.3002 47.4912 23.6284 47.4026C23.7475 47.6876 23.9286 48.3609 24.0328 48.8091L24.1518 49.3207L24.5459 48.9742C24.8565 48.7011 25.2181 48.4413 25.5874 48.2212L25.5974 48.2294C25.7639 48.3681 26.2317 49.0592 26.5113 49.5049L26.7891 49.9502L27.0504 49.4947C27.2584 49.1325 27.485 48.8221 27.6718 48.5898L27.6791 48.5938C27.8734 48.6896 28.4874 49.254 28.8625 49.6241L29.2352 49.9929L29.3843 49.4893C29.4615 49.2282 29.5593 48.962 29.6743 48.6991C29.9476 48.792 30.5952 49.137 31.0093 49.3771L31.4638 49.6391L31.4803 49.1148C31.4843 48.9665 31.4952 48.8151 31.5101 48.6609C31.8307 48.8011 32.313 49.0532 32.6461 49.2404L33.1033 49.4976L33.1136 48.973C33.1219 48.5667 33.1694 48.1937 33.2218 47.8985C33.4666 47.9583 34.1758 48.3034 34.6225 48.5407L35.0855 48.7865L35.0841 48.2623C35.0831 47.8159 35.1299 47.4089 35.1801 47.1017C35.5654 47.2818 35.9465 47.4844 35.9513 47.4871L36.415 47.7339L36.4135 47.2097C36.4121 46.6526 36.4829 46.1618 36.55 45.8264C36.9481 45.8778 37.5641 46.0134 37.8144 46.0725L38.3242 46.1933L38.1902 45.6859C38.0662 45.2153 38.0092 44.777 37.9836 44.4553C38.3846 44.4823 38.9239 44.556 39.1478 44.5895L39.6665 44.6683L39.4917 44.1737C39.4262 43.9873 39.3665 43.7939 39.316 43.5942L39.4391 43.6274L39.3216 43.1178C39.318 43.1038 39.3151 43.0907 39.3125 43.076C39.7906 43.1104 40.3865 43.1966 40.3934 43.1979L40.9128 43.2732L40.7342 42.7798C40.5587 42.2931 40.461 41.8391 40.4088 41.507C40.5766 41.5023 40.6894 41.5004 40.6911 41.5008L41.2152 41.4948L41.2061 41.4771C41.4183 41.5066 41.5715 41.5312 41.5733 41.5315L42.0921 41.6147L41.921 41.1191C41.7135 40.5193 41.6251 39.9689 41.5877 39.6387C41.8138 39.5477 42.6054 39.4256 43.1118 39.3673L43.6329 39.3064L43.3335 38.8756C42.9455 38.3193 42.701 37.7731 42.5856 37.4826C42.9457 37.3064 43.5367 37.0793 43.7831 36.9895L44.2759 36.8099L43.8844 36.4599C43.4916 36.1078 43.1842 35.7426 42.9884 35.4859L42.9904 35.4845C43.1208 35.3102 43.7892 34.8113 44.221 34.5113L44.6524 34.2129L44.1857 33.9727C43.8839 33.8182 43.5835 33.6327 43.2922 33.423L43.2138 33.3609C43.1549 33.314 43.097 33.2664 43.0387 33.2161C43.3851 33.0132 44.0185 32.7273 44.2595 32.623L44.7417 32.4146L44.3306 32.0885C43.8792 31.7299 43.5322 31.3526 43.3192 31.0971C43.6806 30.7864 44.1412 30.4426 44.1473 30.4385L44.5682 30.1247L44.0938 29.9018C43.8243 29.7748 43.5562 29.6258 43.2939 29.4565C43.476 29.1644 43.8317 28.691 44.0854 28.3741L44.4139 27.9643L43.8985 27.8683C43.4795 27.7907 43.1041 27.6758 42.8156 27.5738C43.13 27.2425 43.5042 26.8931 43.5096 26.8879L43.8927 26.5295L43.3964 26.3604C42.8708 26.1813 42.4311 25.9542 42.1377 25.7835C42.2901 25.4786 42.611 24.9629 42.8408 24.6174L43.1315 24.1808L42.6099 24.131C42.1892 24.0905 41.8088 24.0121 41.5036 23.9319C41.6987 23.6699 42.1438 23.1912 42.4537 22.8796L42.8242 22.5072L42.3216 22.3575C41.7962 22.2007 41.3511 21.9922 41.0583 21.8376C41.1663 21.5315 41.4562 20.9395 41.6634 20.5477L41.9092 20.0848L41.384 20.0869C40.9651 20.0887 40.582 20.0481 40.2854 20.0026C40.304 19.7348 40.4999 18.9937 40.6431 18.5211L40.7946 18.0189L40.2797 18.122C39.8438 18.2089 39.4393 18.2429 39.1154 18.2519L39.1973 17.9801L39.1853 17.9823C39.3226 17.6772 39.5104 17.3032 39.6569 17.0294L39.9044 16.5667L39.8976 16.5744Z" fill="#CBCBCB"/>
<path d="M26.7238 2.15677C26.7238 2.15677 26.106 2.79819 26.2694 4.01167C26.4329 5.22515 27.0973 6.90754 27.0075 8.07299C26.9176 9.23844 25.8439 12.1048 25.8439 12.1048L27.1794 14.0653L28.9937 12.6584C28.9937 12.6584 30.1327 8.96287 29.988 7.49057C29.8433 6.01827 29.7198 2.49557 29.7198 2.49557L26.7238 2.15677Z" fill="#433709"/>
<path d="M27.9039 2.29505C27.9308 2.99984 28.266 5.91028 28.3926 7.19532C28.5373 8.66762 27.3983 12.3632 27.3983 12.3632L26.1993 13.0524L26.8688 14.0352L28.6831 12.6283C28.6831 12.6283 29.8221 8.93271 29.6774 7.4604C29.5328 5.9881 29.4092 2.46541 29.4092 2.46541L27.9056 2.29538L27.9039 2.29505Z" fill="#261C02"/>
<path d="M29.7267 2.56915C29.6896 2.953 28.9709 3.19954 28.1226 3.11721C27.2733 3.03557 26.6161 2.65659 26.6525 2.27171C26.6896 1.88786 27.4083 1.64131 28.2566 1.72365C29.1059 1.80528 29.7631 2.18427 29.7267 2.56915Z" fill="#FCD3B3"/>
<path d="M26.1407 10.5814C26.1407 10.5814 20.2753 10.6158 15.8198 18.449C11.3652 26.2814 12.0881 32.8556 15.1323 38.5118C18.1754 44.1687 21.6639 46.9222 27.0562 47.321C32.4476 47.7205 41.1878 39.3693 41.1786 33.5917C41.1671 26.1608 39.1529 19.4264 37.057 16.29C34.961 13.1537 32.0404 11.6788 30.5333 11.0851C29.0278 10.4917 27.4124 10.3933 27.4124 10.3933L26.1417 10.5807L26.1407 10.5814Z" fill="#4B5B19"/>
<path d="M23.0295 9.85511C23.0295 9.85511 23.9996 10.8012 24.3379 10.9653L24.6752 11.1302L24.0144 12.422C24.0144 12.422 23.1017 11.6019 23.1165 11.5753C23.1314 11.5486 23.0285 9.85581 23.0285 9.85581L23.0295 9.85511Z" fill="#6B7B3E"/>
<path d="M23.0304 9.8551C22.7305 10.895 22.2438 11.6452 22.2438 11.6452L24.0159 12.423L23.0311 9.85613L23.0304 9.8551Z" fill="#4B5B19"/>
<path d="M20.9479 10.5768C20.9479 10.5768 22.1121 11.2706 22.4796 11.3519L22.847 11.4332L22.5054 12.8436C22.5054 12.8436 21.4269 12.258 21.4352 12.2283C21.4435 12.1987 20.9489 10.5761 20.9489 10.5761L20.9479 10.5768Z" fill="#6B7B3E"/>
<path d="M20.9488 10.5768C20.8991 11.6579 20.6018 12.5011 20.6018 12.5011L22.5064 12.8436L20.9488 10.5768Z" fill="#4B5B19"/>
<path d="M19.3417 11.6935C19.3417 11.6935 20.601 12.1965 20.9751 12.2192L21.3509 12.2423L21.2346 13.6883C21.2346 13.6883 20.078 13.2789 20.0812 13.2482C20.0843 13.2176 19.3427 11.6928 19.3427 11.6928L19.3417 11.6935Z" fill="#6B7B3E"/>
<path d="M19.3411 11.6934C19.4619 12.7694 19.2987 13.6488 19.2987 13.6488L21.233 13.689L19.3401 11.6941L19.3411 11.6934Z" fill="#4B5B19"/>
<path d="M14.8711 16.8296C14.8711 16.8296 16.2257 16.8866 16.5869 16.7846L16.949 16.682L17.3194 18.0846C17.3194 18.0846 16.0918 18.082 16.085 18.0522C16.0782 18.0223 14.8728 16.8299 14.8728 16.8299L14.8711 16.8296Z" fill="#6B7B3E"/>
<path d="M14.8707 16.8296C15.341 17.8041 15.4795 18.688 15.4795 18.688L17.3183 18.0836L14.8718 16.8289L14.8707 16.8296Z" fill="#4B5B19"/>
<path d="M16.0312 14.989C16.0312 14.989 17.3859 15.046 17.747 14.944L18.1092 14.8414L18.4795 16.244C18.4795 16.244 17.252 16.2415 17.2452 16.2116C17.2383 16.1818 16.033 14.9893 16.033 14.9893L16.0312 14.989Z" fill="#6B7B3E"/>
<path d="M16.0309 14.989C16.5012 15.9635 16.6396 16.8474 16.6396 16.8474L18.4785 16.243L16.0319 14.9883L16.0309 14.989Z" fill="#4B5B19"/>
<path d="M17.5566 13.2177C17.5566 13.2177 18.8852 13.4875 19.2586 13.4431L19.632 13.3988L19.7768 14.8426C19.7768 14.8426 18.5645 14.6466 18.5632 14.616C18.5618 14.5854 17.5584 13.218 17.5584 13.218L17.5566 13.2177Z" fill="#6B7B3E"/>
<path d="M17.5559 13.2177C17.8671 14.2539 17.8634 15.1492 17.8634 15.1492L19.7743 14.8423L17.5559 13.2177Z" fill="#4B5B19"/>
<path d="M24.9484 9.2351C24.9484 9.2351 25.8282 10.2667 26.1493 10.4606L26.4711 10.6555L25.6943 11.8807C25.6943 11.8807 24.8613 10.9794 24.8785 10.9541C24.8958 10.9288 24.9487 9.23338 24.9487 9.23338L24.9484 9.2351Z" fill="#6B7B3E"/>
<path d="M24.9476 9.23515C24.5539 10.243 23.9996 10.9447 23.9996 10.9447L25.6924 11.8815L24.9469 9.23413L24.9476 9.23515Z" fill="#4B5B19"/>
<path d="M11.6895 25.3182C11.6895 25.3182 12.9703 24.8749 13.2686 24.6476L13.568 24.4197L14.4261 25.5891C14.4261 25.5891 13.2828 26.0363 13.2661 26.0117C13.2493 25.9871 11.6895 25.3182 11.6895 25.3182Z" fill="#6B7B3E"/>
<path d="M11.6895 25.3182C12.4837 26.0525 12.9361 26.8246 12.9361 26.8246L14.4261 25.5891L11.6895 25.3182Z" fill="#4B5B19"/>
<path d="M12.0742 23.3994C12.0742 23.3994 13.3551 22.956 13.6534 22.7288L13.9528 22.5009L14.8108 23.6703C14.8108 23.6703 13.6676 24.1174 13.6508 24.0929C13.6341 24.0683 12.0742 23.3994 12.0742 23.3994Z" fill="#6B7B3E"/>
<path d="M12.0742 23.3994C12.8685 24.1337 13.3209 24.9058 13.3209 24.9058L14.8108 23.6703L12.0742 23.3994Z" fill="#4B5B19"/>
<path d="M12.7081 21.1376C12.7081 21.1376 14.0407 20.887 14.3687 20.7056L14.6978 20.5234L15.3754 21.8068C15.3754 21.8068 14.1792 22.0815 14.1655 22.0548C14.1529 22.0274 12.707 21.1383 12.707 21.1383L12.7081 21.1376Z" fill="#6B7B3E"/>
<path d="M12.7072 21.1376C13.3863 21.9804 13.7206 22.8104 13.7206 22.8104L15.3745 21.8068L12.7072 21.1376Z" fill="#4B5B19"/>
<path d="M13.7148 18.9922C13.7148 18.9922 15.0649 18.8662 15.4084 18.7163L15.7529 18.5657L16.309 19.9063C16.309 19.9063 15.092 20.0691 15.0814 20.0403C15.0708 20.0115 13.7148 18.9922 13.7148 18.9922Z" fill="#6B7B3E"/>
<path d="M13.7142 18.9921C14.3114 19.8952 14.5675 20.7514 14.5675 20.7514L16.3077 19.9052L13.7142 18.9921Z" fill="#4B5B19"/>
<path d="M11.4512 27.4034C11.4512 27.4034 12.732 26.96 13.0304 26.7328L13.3297 26.5049L14.1878 27.6743C14.1878 27.6743 13.0446 28.1215 13.0278 28.0969C13.0111 28.0723 11.4512 27.4034 11.4512 27.4034Z" fill="#6B7B3E"/>
<path d="M11.4512 27.4034C12.2454 28.1377 12.6978 28.9098 12.6978 28.9098L14.1878 27.6743L11.4512 27.4034Z" fill="#4B5B19"/>
<path d="M11.1327 29.6839C11.1327 29.6839 12.2763 28.9574 12.5145 28.6661L12.7527 28.3749L13.8578 29.3145C13.8578 29.3145 12.8488 30.0138 12.8259 29.9933C12.803 29.9729 11.132 29.6828 11.132 29.6828L11.1327 29.6839Z" fill="#6B7B3E"/>
<path d="M11.1328 29.6838C12.0753 30.2151 12.6943 30.8617 12.6943 30.8617L13.8586 29.3154L11.1338 29.6831L11.1328 29.6838Z" fill="#4B5B19"/>
<path d="M11.3933 32.3312C11.3933 32.3312 12.3168 31.3391 12.4727 30.9974L12.6302 30.656L13.9369 31.2857C13.9369 31.2857 13.1373 32.2175 13.1106 32.2027C13.083 32.1885 11.3933 32.3312 11.3933 32.3312Z" fill="#6B7B3E"/>
<path d="M11.3926 32.3312C12.4388 32.6072 13.2005 33.0756 13.2005 33.0756L13.9362 31.2857L11.3926 32.3312Z" fill="#4B5B19"/>
<path d="M11.9334 33.8769C11.9334 33.8769 12.9904 33.0279 13.1947 32.7132L13.3989 32.3985L14.6005 33.2109C14.6005 33.2109 13.6747 34.0171 13.6505 33.9991C13.6262 33.9811 11.9324 33.8776 11.9324 33.8776L11.9334 33.8769Z" fill="#6B7B3E"/>
<path d="M11.9327 33.8769C12.9285 34.3013 13.6138 34.8757 13.6138 34.8757L14.5998 33.2109L11.9316 33.8776L11.9327 33.8769Z" fill="#4B5B19"/>
<path d="M12.5014 36.2028C12.5014 36.2028 13.3333 35.1334 13.4595 34.779L13.5856 34.4245L14.943 34.9371C14.943 34.9371 14.229 35.9351 14.2 35.9234C14.172 35.9109 12.5007 36.2017 12.5007 36.2017L12.5014 36.2028Z" fill="#6B7B3E"/>
<path d="M12.501 36.2028C13.5677 36.3854 14.3672 36.786 14.3672 36.786L14.9424 34.9389L12.5 36.2035L12.501 36.2028Z" fill="#4B5B19"/>
<path d="M13.3805 38.4178C13.3805 38.4178 13.9156 37.1726 13.9483 36.7978L13.981 36.4229L15.4236 36.576C15.4236 36.576 14.9848 37.7226 14.9545 37.7177C14.9242 37.7129 13.3808 38.4161 13.3808 38.4161L13.3805 38.4178Z" fill="#6B7B3E"/>
<path d="M13.3813 38.4178C14.46 38.3252 15.3344 38.5098 15.3344 38.5098L15.4234 36.5767L13.3806 38.4168L13.3813 38.4178Z" fill="#4B5B19"/>
<path d="M14.1855 40.112C14.1855 40.112 14.954 38.9958 15.0598 38.6357L15.1656 38.2756L16.5505 38.7095C16.5505 38.7095 15.895 39.7472 15.8656 39.7372C15.8363 39.7271 14.1851 40.1137 14.1851 40.1137L14.1855 40.112Z" fill="#6B7B3E"/>
<path d="M14.1855 40.1119C15.2612 40.2329 16.0822 40.5859 16.0822 40.5859L16.5498 38.7085L14.1855 40.1119Z" fill="#4B5B19"/>
<path d="M15.2803 42.1381C15.2803 42.1381 15.7716 40.8748 15.7909 40.5L15.8102 40.1253L17.2571 40.2275C17.2571 40.2275 16.8584 41.3888 16.8287 41.3849C16.7981 41.3818 15.2803 42.1381 15.2803 42.1381Z" fill="#6B7B3E"/>
<path d="M15.2801 42.1381C16.3542 42.0081 17.2352 42.1627 17.2352 42.1627L17.2568 40.2275L15.2801 42.1381Z" fill="#4B5B19"/>
<path d="M17.06 44.1152C17.06 44.1152 17.2155 42.7685 17.1389 42.4006L17.0623 42.0326L18.489 41.7659C18.489 41.7659 18.397 42.9899 18.3668 42.994C18.3366 42.9981 17.0593 44.1141 17.0593 44.1141L17.06 44.1152Z" fill="#6B7B3E"/>
<path d="M17.0601 44.1152C18.0673 43.7172 18.9576 43.6433 18.9576 43.6433L18.4891 41.766L17.0601 44.1152Z" fill="#4B5B19"/>
<path d="M18.411 45.04C18.411 45.04 18.7594 43.7299 18.7367 43.3552L18.7151 42.9799L20.1656 42.9221C20.1656 42.9221 19.8982 44.1199 19.867 44.1202C19.8367 44.1198 18.411 45.04 18.411 45.04Z" fill="#6B7B3E"/>
<path d="M18.4105 45.04C19.4642 44.7918 20.3559 44.8476 20.3559 44.8476L20.1634 42.9218L18.4098 45.039L18.4105 45.04Z" fill="#4B5B19"/>
<path d="M20.2447 46.5784C20.2447 46.5784 20.282 45.2236 20.1736 44.8639L20.0651 44.5042L21.4627 44.1133C21.4627 44.1133 21.478 45.3406 21.4489 45.3485C21.419 45.3553 20.2454 46.5794 20.2454 46.5794L20.2447 46.5784Z" fill="#6B7B3E"/>
<path d="M20.244 46.5783C21.2115 46.0933 22.0925 45.9418 22.0925 45.9418L21.4614 44.1122L20.244 46.5783Z" fill="#4B5B19"/>
<path d="M40.8813 20.9045C40.8813 20.9045 39.9262 21.8657 39.7579 22.2024L39.5907 22.5384L38.3056 21.8654C38.3056 21.8654 39.1357 20.9608 39.1613 20.9764C39.188 20.9913 40.8813 20.9045 40.8813 20.9045Z" fill="#6B7B3E"/>
<path d="M40.8817 20.9046C39.8444 20.5954 39.0994 20.1007 39.0994 20.1007L38.306 21.8654L40.8827 20.9039L40.8817 20.9046Z" fill="#4B5B19"/>
<path d="M40.0102 18.5815C40.0102 18.5815 39.3752 19.7792 39.3128 20.1502L39.2498 20.5203L37.8249 20.25C37.8249 20.25 38.3553 19.1431 38.3852 19.1497C38.4152 19.1563 40.0102 18.5815 40.0102 18.5815Z" fill="#6B7B3E"/>
<path d="M40.0094 18.5814C38.9268 18.5868 38.0695 18.3305 38.0695 18.3305L37.8225 20.2497L40.0077 18.5811L40.0094 18.5814Z" fill="#4B5B19"/>
<path d="M38.9368 16.5531C38.9368 16.5531 38.5453 17.8505 38.5545 18.2253L38.5645 18.6011L37.1135 18.6098C37.1135 18.6098 37.4219 17.4215 37.4511 17.4226C37.4814 17.423 38.9361 16.5521 38.9361 16.5521L38.9368 16.5531Z" fill="#6B7B3E"/>
<path d="M38.9364 16.553C37.8751 16.7659 36.9855 16.6801 36.9855 16.6801L37.1128 18.6114L38.9364 16.553Z" fill="#4B5B19"/>
<path d="M38.0726 18.3541C38.0726 18.3541 37.6811 19.6516 37.6893 20.0271L37.6992 20.4029L36.2483 20.4115C36.2483 20.4115 36.5566 19.2232 36.5859 19.2243C36.6161 19.2247 38.0709 18.3538 38.0709 18.3538L38.0726 18.3541Z" fill="#6B7B3E"/>
<path d="M38.0731 18.3542C37.0118 18.567 36.1222 18.4813 36.1222 18.4813L36.2495 20.4126L38.0731 18.3542Z" fill="#4B5B19"/>
<path d="M38.2503 20.1436C38.2503 20.1436 37.8588 21.441 37.867 21.8165L37.877 22.1923L36.426 22.2009C36.426 22.2009 36.7343 21.0127 36.7636 21.0138C36.7939 21.0142 38.2486 20.1433 38.2486 20.1433L38.2503 20.1436Z" fill="#6B7B3E"/>
<path d="M38.2508 20.1436C37.1895 20.3564 36.2999 20.2707 36.2999 20.2707L36.4272 22.202L38.2508 20.1436Z" fill="#4B5B19"/>
<path d="M38.5784 21.7092C38.5784 21.7092 38.1869 23.0067 38.1951 23.3822L38.2051 23.758L36.7541 23.7666C36.7541 23.7666 37.0625 22.5784 37.0927 22.5787C37.123 22.5791 38.5777 21.7082 38.5777 21.7082L38.5784 21.7092Z" fill="#6B7B3E"/>
<path d="M38.579 21.7093C37.5176 21.9221 36.6281 21.8364 36.6281 21.8364L36.7553 23.7677L38.579 21.7093Z" fill="#4B5B19"/>
<path d="M37.2952 16.5101C37.2952 16.5101 36.9037 17.8076 36.912 18.1831L36.9219 18.5589L35.4709 18.5675C35.4709 18.5675 35.7793 17.3792 35.8096 17.3796C35.8398 17.38 37.2945 16.5091 37.2945 16.5091L37.2952 16.5101Z" fill="#6B7B3E"/>
<path d="M37.2958 16.5102C36.2344 16.723 35.3449 16.6373 35.3449 16.6373L35.4721 18.5686L37.2958 16.5102Z" fill="#4B5B19"/>
<path d="M36.1488 14.9578C36.1488 14.9578 35.7572 16.2552 35.7654 16.6307L35.7754 17.0065L34.3244 17.0152C34.3244 17.0152 34.6328 15.8269 34.663 15.8273C34.6933 15.8277 36.1481 14.9567 36.1481 14.9567L36.1488 14.9578Z" fill="#6B7B3E"/>
<path d="M36.1493 14.9578C35.088 15.1706 34.1984 15.0849 34.1984 15.0849L34.3257 17.0162L36.1493 14.9578Z" fill="#4B5B19"/>
<path d="M37.947 14.9595C37.947 14.9595 37.3072 16.1545 37.2431 16.5252L37.1784 16.8949L35.7538 16.6185C35.7538 16.6185 36.2889 15.5143 36.3189 15.5209C36.3489 15.5275 37.947 14.9595 37.947 14.9595Z" fill="#6B7B3E"/>
<path d="M37.9465 14.9595C36.8638 14.9604 36.0082 14.6999 36.0082 14.6999L35.7533 16.6185L37.9465 14.9595Z" fill="#4B5B19"/>
<path d="M36.6331 13.0699C36.6331 13.0699 36.2864 14.3804 36.3091 14.755L36.3317 15.1297L34.8817 15.1902C34.8817 15.1902 35.1472 13.9921 35.1785 13.9918C35.2088 13.9922 36.6331 13.0699 36.6331 13.0699Z" fill="#6B7B3E"/>
<path d="M36.6333 13.0699C35.581 13.3201 34.6882 13.265 34.6882 13.265L34.8836 15.1905L36.6333 13.0699Z" fill="#4B5B19"/>
<path d="M34.6407 11.3038C34.6407 11.3038 34.6371 12.6596 34.7541 13.0165L34.8712 13.3733L33.4832 13.7982C33.4832 13.7982 33.4372 12.5722 33.4674 12.5636C33.4966 12.5557 34.6407 11.3038 34.6407 11.3038Z" fill="#6B7B3E"/>
<path d="M34.6409 11.3038C33.6851 11.8124 32.808 11.9852 32.808 11.9852L33.4834 13.7982L34.6409 11.3038Z" fill="#4B5B19"/>
<path d="M33.1965 10.5361C33.1965 10.5361 32.9967 11.8771 33.0612 12.2472L33.1258 12.6173L31.691 12.8369C31.691 12.8369 31.8233 11.6171 31.8536 11.613C31.8838 11.6089 33.1965 10.5361 33.1965 10.5361Z" fill="#6B7B3E"/>
<path d="M33.1965 10.5361C32.1777 10.9015 31.2843 10.9445 31.2843 10.9445L31.6911 12.8369L33.1965 10.5361Z" fill="#4B5B19"/>
<path d="M31.0975 9.46478C31.0975 9.46478 31.2127 10.8146 31.3603 11.1612L31.5082 11.506L30.1634 12.0515C30.1634 12.0515 30.0106 10.8338 30.0393 10.8232C30.0681 10.8126 31.0975 9.46478 31.0975 9.46478Z" fill="#6B7B3E"/>
<path d="M31.0994 9.46471C30.1921 10.0557 29.3337 10.3043 29.3337 10.3043L30.1663 12.0507L31.1004 9.46401L31.0994 9.46471Z" fill="#4B5B19"/>
<path d="M41.7529 37.7702C41.7529 37.7702 40.4066 37.9281 40.066 38.0866L39.7254 38.2451L39.1381 36.9182C39.1381 36.9182 40.3506 36.727 40.3623 36.7551C40.3739 36.7831 41.7529 37.7702 41.7529 37.7702Z" fill="#6B7B3E"/>
<path d="M41.7535 37.7702C41.1348 36.8818 40.8588 36.0316 40.8588 36.0316L39.1387 36.9182L41.7535 37.7702Z" fill="#4B5B19"/>
<path d="M42.3695 35.3411C42.3695 35.3411 41.0955 35.8054 40.8013 36.0388L40.5065 36.2711L39.6289 35.115C39.6289 35.115 40.764 34.6493 40.7818 34.6732C40.7993 34.6989 42.3699 35.3394 42.3699 35.3394L42.3695 35.3411Z" fill="#6B7B3E"/>
<path d="M42.3705 35.3411C41.564 34.6197 41.0993 33.856 41.0993 33.856L39.6305 35.116L42.3705 35.3411Z" fill="#4B5B19"/>
<path d="M42.7469 32.8301C42.7469 32.8301 41.6324 33.6012 41.406 33.901L41.1796 34.2008L40.0384 33.3052C40.0384 33.3052 41.0192 32.5666 41.0421 32.587C41.066 32.6068 42.7469 32.8301 42.7469 32.8301Z" fill="#6B7B3E"/>
<path d="M42.7479 32.8301C41.7848 32.3368 41.1416 31.7142 41.1416 31.7142L40.0394 33.3052L42.7479 32.8301Z" fill="#4B5B19"/>
<path d="M42.8454 30.8584C42.8454 30.8584 41.6013 31.3953 41.32 31.6454L41.0388 31.8955L40.0957 30.793C40.0957 30.793 41.2023 30.2612 41.2208 30.2861C41.2396 30.3093 42.844 30.8608 42.844 30.8608L42.8454 30.8584Z" fill="#6B7B3E"/>
<path d="M42.8463 30.8583C41.9994 30.1855 41.4903 29.449 41.4903 29.449L40.097 30.7912L42.8456 30.8573L42.8463 30.8583Z" fill="#4B5B19"/>
<path d="M41.2448 30.3977C41.2448 30.3977 40.0006 30.9346 39.7194 31.1847L39.4392 31.4341L38.4961 30.3315C38.4961 30.3315 39.6027 29.7998 39.6212 29.8247C39.64 29.8479 41.2444 30.3994 41.2444 30.3994L41.2448 30.3977Z" fill="#6B7B3E"/>
<path d="M41.2448 30.3977C40.3971 29.7238 39.8887 28.9883 39.8887 28.9883L38.4954 30.3305L41.2448 30.3977Z" fill="#4B5B19"/>
<path d="M39.9235 28.9852C39.9235 28.9852 38.6794 29.5221 38.3981 29.7722L38.1169 30.0223L37.1738 28.9198C37.1738 28.9198 38.2805 28.388 38.2989 28.413C38.3177 28.4362 39.9222 28.9876 39.9222 28.9876L39.9235 28.9852Z" fill="#6B7B3E"/>
<path d="M39.9245 28.9852C39.0775 28.3123 38.5684 27.5759 38.5684 27.5759L37.1751 28.918L39.9238 28.9842L39.9245 28.9852Z" fill="#4B5B19"/>
<path d="M41.695 32.1664C41.695 32.1664 40.4508 32.7033 40.1696 32.9534L39.8883 33.2035L38.9453 32.101C38.9453 32.101 40.0519 31.5692 40.0704 31.5941C40.0889 31.6191 41.6936 32.1688 41.6936 32.1688L41.695 32.1664Z" fill="#6B7B3E"/>
<path d="M41.6949 32.1664C40.8479 31.4936 40.3398 30.7564 40.3398 30.7564L38.9466 32.0986L41.6952 32.1647L41.6949 32.1664Z" fill="#4B5B19"/>
<path d="M41.1569 34.3186C41.1569 34.3186 39.9127 34.8555 39.6315 35.1056L39.3513 35.355L38.4082 34.2524C38.4082 34.2524 39.5148 33.7207 39.5333 33.7456C39.5521 33.7688 41.1566 34.3203 41.1566 34.3203L41.1569 34.3186Z" fill="#6B7B3E"/>
<path d="M41.1578 34.3185C40.3102 33.6446 39.8027 32.9085 39.8027 32.9085L38.4095 34.2507L41.1588 34.3178L41.1578 34.3185Z" fill="#4B5B19"/>
<path d="M40.8552 36.313C40.8552 36.313 39.611 36.8499 39.3298 37.1L39.0485 37.3501L38.1055 36.2476C38.1055 36.2476 39.2121 35.7158 39.2306 35.7407C39.2494 35.7639 40.8538 36.3154 40.8538 36.3154L40.8552 36.313Z" fill="#6B7B3E"/>
<path d="M40.8551 36.313C40.0081 35.6402 39.5 34.903 39.5 34.903L38.1067 36.2452L40.8554 36.3113L40.8551 36.313Z" fill="#4B5B19"/>
<path d="M42.6649 28.649C42.6649 28.649 41.5779 29.4584 41.3626 29.7657L41.1472 30.0729L39.9752 29.2179C39.9752 29.2179 40.9295 28.4448 40.9534 28.4645C40.9766 28.4832 42.6659 28.6483 42.6659 28.6483L42.6649 28.649Z" fill="#6B7B3E"/>
<path d="M42.6644 28.649C41.6851 28.1894 41.0205 27.5903 41.0205 27.5903L39.9747 29.2179L42.6654 28.6483L42.6644 28.649Z" fill="#4B5B19"/>
<path d="M42.5414 26.5828C42.5414 26.5828 41.6945 27.6413 41.5636 27.9931L41.4326 28.3449L40.0822 27.8139C40.0822 27.8139 40.8104 26.8257 40.8384 26.8382C40.8664 26.8506 42.5414 26.5828 42.5414 26.5828Z" fill="#6B7B3E"/>
<path d="M42.5414 26.5828C41.4774 26.3864 40.6836 25.9744 40.6836 25.9744L40.0839 27.8142L42.5432 26.5832L42.5414 26.5828Z" fill="#4B5B19"/>
<path d="M41.9768 25.0188C41.9768 25.0188 40.9865 25.9439 40.8055 26.2728L40.6251 26.6027L39.366 25.882C39.366 25.882 40.2285 25.0094 40.2548 25.026C40.2804 25.0416 41.9768 25.0188 41.9768 25.0188Z" fill="#6B7B3E"/>
<path d="M41.9768 25.0188C40.9515 24.67 40.2258 24.1486 40.2258 24.1486L39.3661 25.882L41.9768 25.0188Z" fill="#4B5B19"/>
<path d="M41.2421 22.7418C41.2421 22.7418 40.4909 23.8701 40.3927 24.2326L40.2928 24.5947L38.9016 24.1845C38.9016 24.1845 39.5395 23.1364 39.5681 23.1454C39.5974 23.1554 41.2421 22.7418 41.2421 22.7418Z" fill="#6B7B3E"/>
<path d="M41.2419 22.7418C40.1647 22.6383 39.3376 22.2985 39.3376 22.2985L38.9014 24.1845L41.2419 22.7418Z" fill="#4B5B19"/>
<path d="M40.2599 39.9993C40.2599 39.9993 38.922 39.784 38.5511 39.843L38.1803 39.9021L37.9771 38.4651C37.9771 38.4651 39.1961 38.6115 39.1984 38.6414C39.2015 38.6723 40.2603 39.9976 40.2603 39.9976L40.2599 39.9993Z" fill="#6B7B3E"/>
<path d="M40.2597 39.9994C39.9066 38.9766 39.8736 38.0824 39.8736 38.0824L37.9766 38.4669L40.2597 39.9994Z" fill="#4B5B19"/>
<path d="M40.2164 23.0997C40.2164 23.0997 39.1653 23.9552 38.9625 24.2719L38.7596 24.5886L37.5523 23.7832C37.5523 23.7832 38.4728 22.9716 38.4981 22.9889C38.5233 23.0062 40.2164 23.0997 40.2164 23.0997Z" fill="#6B7B3E"/>
<path d="M40.2175 23.0996C39.2186 22.6817 38.5299 22.1111 38.5299 22.1111L37.5544 23.7824L40.2175 23.0996Z" fill="#4B5B19"/>
<path d="M39.6375 20.7773C39.6375 20.7773 38.8117 21.8514 38.688 22.2073L38.5636 22.5621L37.2028 22.0577C37.2028 22.0577 37.9106 21.055 37.9396 21.0667C37.9679 21.0774 39.6364 20.778 39.6364 20.778L39.6375 20.7773Z" fill="#6B7B3E"/>
<path d="M39.6378 20.7773C38.5699 20.6016 37.7677 20.2058 37.7677 20.2058L37.2042 22.057L39.6378 20.7773Z" fill="#4B5B19"/>
<path d="M39.2963 39.9631C39.2963 39.9631 37.9407 39.9773 37.5856 40.0992L37.2305 40.221L36.7875 38.8394C36.7875 38.8394 38.013 38.7773 38.0219 38.8058C38.0297 38.8349 39.2974 39.9624 39.2974 39.9624L39.2963 39.9631Z" fill="#6B7B3E"/>
<path d="M39.2967 39.9631C38.7751 39.0146 38.5913 38.139 38.5913 38.139L36.7871 38.8384L39.297 39.9614L39.2967 39.9631Z" fill="#4B5B19"/>
<path d="M40.1691 37.6133C40.1691 37.6133 38.8541 37.9404 38.5359 38.1407L38.2177 38.3409L37.4679 37.0992C37.4679 37.0992 38.6459 36.7559 38.6606 36.7819C38.6753 36.8079 40.1691 37.6133 40.1691 37.6133Z" fill="#6B7B3E"/>
<path d="M40.1697 37.6133C39.4428 36.8106 39.0626 36.0014 39.0626 36.0014L37.4685 37.0993L40.1697 37.6133Z" fill="#4B5B19"/>
<path d="M40.8089 35.1569C40.8089 35.1569 39.6185 35.8057 39.3622 36.0793L39.105 36.3535L38.0645 35.3414C38.0645 35.3414 39.1175 34.7112 39.1383 34.733C39.1592 34.7548 40.8082 35.1558 40.8082 35.1558L40.8089 35.1569Z" fill="#6B7B3E"/>
<path d="M40.8095 35.1568C39.9046 34.564 39.3306 33.8777 39.3306 33.8777L38.0658 35.3424L40.8095 35.1568Z" fill="#4B5B19"/>
<path d="M41.1503 33.4258C41.1503 33.4258 39.8567 33.8284 39.5503 34.046L39.2447 34.2647L38.4238 33.0685C38.4238 33.0685 39.5798 32.6576 39.5973 32.6833C39.6147 32.7089 41.1503 33.4258 41.1503 33.4258Z" fill="#6B7B3E"/>
<path d="M41.1504 33.4258C40.3796 32.6665 39.9522 31.8804 39.9522 31.8804L38.4239 33.0684L41.1504 33.4258Z" fill="#4B5B19"/>
<path d="M41.2059 31.2093C41.2059 31.2093 40.0397 31.9002 39.7925 32.1826L39.5459 32.4661L38.4707 31.4911C38.4707 31.4911 39.5013 30.8236 39.5232 30.8447C39.5451 30.8658 41.2069 31.2086 41.2069 31.2086L41.2059 31.2093Z" fill="#6B7B3E"/>
<path d="M41.2052 31.2093C40.2799 30.6483 39.6824 29.9825 39.6824 29.9825L38.47 31.4911L41.2052 31.2093Z" fill="#4B5B19"/>
<path d="M41.2644 28.9218C41.2644 28.9218 40.31 29.884 40.1435 30.221L39.9762 30.557L38.6898 29.8865C38.6898 29.8865 39.5175 28.9806 39.5441 28.9954C39.5708 29.0103 41.2644 28.9218 41.2644 28.9218Z" fill="#6B7B3E"/>
<path d="M41.2649 28.9219C40.2276 28.6127 39.4811 28.1205 39.4811 28.1205L38.6895 29.8855L41.2649 28.9219Z" fill="#4B5B19"/>
<path d="M40.8713 27.3076C40.8713 27.3076 39.7878 28.1222 39.5738 28.4315L39.3592 28.7397L38.1834 27.8902C38.1834 27.8902 39.1339 27.1138 39.1581 27.1317C39.1824 27.1497 40.8713 27.3076 40.8713 27.3076Z" fill="#6B7B3E"/>
<path d="M40.8705 27.3076C39.8885 26.8528 39.2216 26.2569 39.2216 26.2569L38.1827 27.8903L40.8695 27.3083L40.8705 27.3076Z" fill="#4B5B19"/>
<path d="M40.3788 24.9646C40.3788 24.9646 39.5135 26.0071 39.3757 26.3576L39.2388 26.7073L37.8985 26.1515C37.8985 26.1515 38.6447 25.1766 38.6717 25.1897C38.6996 25.2022 40.3795 24.9656 40.3795 24.9656L40.3788 24.9646Z" fill="#6B7B3E"/>
<path d="M40.3783 24.9646C39.3171 24.7482 38.5311 24.3234 38.5311 24.3234L37.898 26.1515L40.3783 24.9646Z" fill="#4B5B19"/>
<path d="M37.5783 42.0216C37.5783 42.0216 36.2706 41.6656 35.8955 41.6855L35.5205 41.7055L35.4706 40.2556C35.4706 40.2556 36.6671 40.5298 36.6667 40.5601C36.6664 40.5903 37.5776 42.0206 37.5776 42.0206L37.5783 42.0216Z" fill="#6B7B3E"/>
<path d="M37.5784 42.0216C37.3357 40.9672 37.397 40.0747 37.397 40.0747L35.4707 40.2556L37.5784 42.0216Z" fill="#4B5B19"/>
<path d="M37.6145 20.0495C37.6145 20.0495 36.6677 21.0185 36.5018 21.3565L36.337 21.6938L35.0462 21.0323C35.0462 21.0323 35.868 20.1199 35.8947 20.1348C35.9213 20.1496 37.6138 20.0485 37.6138 20.0485L37.6145 20.0495Z" fill="#6B7B3E"/>
<path d="M37.6144 20.0494C36.5747 19.7479 35.8246 19.2611 35.8246 19.2611L35.0461 21.0322L37.6144 20.0494Z" fill="#4B5B19"/>
<path d="M36.7711 17.8085C36.7711 17.8085 36.0743 18.9704 35.9912 19.3375L35.9092 19.7039L34.5005 19.3582C34.5005 19.3582 35.0903 18.2813 35.1189 18.2903C35.1486 18.2986 36.7718 17.8095 36.7718 17.8095L36.7711 17.8085Z" fill="#6B7B3E"/>
<path d="M36.7719 17.8085C35.6914 17.7553 34.8488 17.4545 34.8488 17.4545L34.4995 19.3579L36.7726 17.8095L36.7719 17.8085Z" fill="#4B5B19"/>
<path d="M38.6286 36.9081C38.6286 36.9081 37.2838 37.077 36.9442 37.2393L36.6057 37.4009L36.0068 36.0789C36.0068 36.0789 37.2178 35.8766 37.2294 35.9047C37.2411 35.9328 38.6286 36.9081 38.6286 36.9081Z" fill="#6B7B3E"/>
<path d="M38.6284 36.9082C38.0015 36.0254 37.7189 35.1767 37.7189 35.1767L36.0059 36.078L38.6277 36.9072L38.6284 36.9082Z" fill="#4B5B19"/>
<path d="M39.2249 34.4751C39.2249 34.4751 37.955 34.95 37.6623 35.1854L37.3695 35.4208L36.4824 34.2727C36.4824 34.2727 37.6133 33.7964 37.6318 33.8214C37.6493 33.847 39.2249 34.4751 39.2249 34.4751Z" fill="#6B7B3E"/>
<path d="M39.2258 34.475C38.4125 33.7612 37.941 33.0007 37.941 33.0007L36.4834 34.2726L39.2258 34.475Z" fill="#4B5B19"/>
<path d="M39.581 31.9602C39.581 31.9602 38.4727 32.7407 38.2494 33.0428L38.0261 33.3449L36.8778 32.4587C36.8778 32.4587 37.852 31.7126 37.8752 31.7313C37.8991 31.751 39.5817 31.9612 39.5817 31.9612L39.581 31.9602Z" fill="#6B7B3E"/>
<path d="M39.5817 31.9602C38.6145 31.4742 37.9666 30.8578 37.9666 30.8578L36.8778 32.4577L39.5817 31.9602Z" fill="#4B5B19"/>
<path d="M39.7228 30.2026C39.7228 30.2026 38.4829 30.7501 38.2041 31.0015L37.9252 31.253L36.9727 30.1584C36.9727 30.1584 38.0747 29.6178 38.0942 29.642C38.113 29.6652 39.7228 30.2026 39.7228 30.2026Z" fill="#6B7B3E"/>
<path d="M39.7227 30.2026C38.87 29.5367 38.3554 28.8054 38.3554 28.8054L36.9732 30.1595L39.7227 30.2026Z" fill="#4B5B19"/>
<path d="M39.5199 27.9941C39.5199 27.9941 38.4399 28.8138 38.227 29.1224L38.0137 29.4327L36.8346 28.587C36.8346 28.587 37.7822 27.8065 37.8054 27.8252C37.8287 27.8439 39.5189 27.9948 39.5189 27.9948L39.5199 27.9941Z" fill="#6B7B3E"/>
<path d="M39.5207 27.9942C38.537 27.5435 37.8669 26.9496 37.8669 26.9496L36.8353 28.5871L39.5207 27.9942Z" fill="#4B5B19"/>
<path d="M39.3219 25.7135C39.3219 25.7135 38.4844 26.7791 38.3559 27.1322L38.2273 27.4854L36.8729 26.9661C36.8729 26.9661 37.5925 25.9719 37.6204 25.9843C37.6484 25.9968 39.3209 25.7142 39.3209 25.7142L39.3219 25.7135Z" fill="#6B7B3E"/>
<path d="M39.3221 25.7134C38.2565 25.5256 37.4586 25.1209 37.4586 25.1209L36.8741 26.9654L39.3221 25.7134Z" fill="#4B5B19"/>
<path d="M38.746 24.1551C38.746 24.1551 37.7631 25.0887 37.5851 25.4199L37.4072 25.7512L36.1416 25.0409C36.1416 25.0409 36.9975 24.1608 37.0231 24.1764C37.0487 24.1919 38.745 24.1558 38.745 24.1558L38.746 24.1551Z" fill="#6B7B3E"/>
<path d="M38.7473 24.1551C37.7204 23.8149 36.9892 23.2987 36.9892 23.2987L36.144 25.0402L38.7473 24.1551Z" fill="#4B5B19"/>
<path d="M37.9894 21.8841C37.9894 21.8841 37.2485 23.0189 37.1521 23.3817L37.0556 23.7445L35.6604 23.346C35.6604 23.346 36.2896 22.2918 36.319 22.3018C36.3476 22.3108 37.9894 21.8841 37.9894 21.8841Z" fill="#6B7B3E"/>
<path d="M37.9886 21.8841C36.9105 21.7903 36.0803 21.457 36.0803 21.457L35.6596 23.346L37.9886 21.8841Z" fill="#4B5B19"/>
<path d="M37.1542 39.1498C37.1542 39.1498 35.815 38.9458 35.4435 39.0083L35.0737 39.0711L34.8585 37.6363C34.8585 37.6363 36.0784 37.7731 36.0818 37.8023C36.0859 37.8325 37.1542 39.1498 37.1542 39.1498Z" fill="#6B7B3E"/>
<path d="M37.1542 39.1498C36.7925 38.1299 36.7512 37.2368 36.7512 37.2368L34.8574 37.6371L37.1531 39.1505L37.1542 39.1498Z" fill="#4B5B19"/>
<path d="M36.4622 19.3161C36.4622 19.3161 35.5153 20.2851 35.3495 20.6231L35.1847 20.9604L33.8938 20.2989C33.8938 20.2989 34.7157 19.3865 34.7423 19.4014C34.7689 19.4162 36.4615 19.3151 36.4615 19.3151L36.4622 19.3161Z" fill="#6B7B3E"/>
<path d="M36.462 19.316C35.4224 19.0145 34.6723 18.5277 34.6723 18.5277L33.8937 20.2988L36.462 19.316Z" fill="#4B5B19"/>
<path d="M35.6208 17.0762C35.6208 17.0762 34.9239 18.2381 34.8408 18.6052L34.7589 18.9716L33.3501 18.6259C33.3501 18.6259 33.9399 17.549 33.9685 17.558C33.9982 17.5663 35.6215 17.0772 35.6215 17.0772L35.6208 17.0762Z" fill="#6B7B3E"/>
<path d="M35.6215 17.0762C34.541 17.023 33.6985 16.7222 33.6985 16.7222L33.3491 18.6256L35.6222 17.0773L35.6215 17.0762Z" fill="#4B5B19"/>
<path d="M37.4762 36.174C37.4762 36.174 36.1314 36.3429 35.7919 36.5051L35.4533 36.6667L34.8544 35.3448C34.8544 35.3448 36.0655 35.1425 36.0771 35.1706C36.0887 35.1987 37.4762 36.174 37.4762 36.174Z" fill="#6B7B3E"/>
<path d="M37.476 36.1741C36.8492 35.2913 36.5666 34.4425 36.5666 34.4425L34.8535 35.3439L37.4753 36.1731L37.476 36.1741Z" fill="#4B5B19"/>
<path d="M38.0726 33.7411C38.0726 33.7411 36.8027 34.216 36.5099 34.4514L36.2172 34.6868L35.3301 33.5387C35.3301 33.5387 36.461 33.0624 36.4795 33.0874C36.4969 33.113 38.0726 33.7411 38.0726 33.7411Z" fill="#6B7B3E"/>
<path d="M38.0735 33.741C37.2602 33.0272 36.7886 32.2667 36.7886 32.2667L35.331 33.5386L38.0735 33.741Z" fill="#4B5B19"/>
<path d="M38.4286 31.2267C38.4286 31.2267 37.3204 32.0071 37.0971 32.3093L36.8738 32.6114L35.7255 31.7252C35.7255 31.7252 36.6996 30.9791 36.7228 30.9978C36.7468 31.0175 38.4293 31.2277 38.4293 31.2277L38.4286 31.2267Z" fill="#6B7B3E"/>
<path d="M38.4293 31.2267C37.4621 30.7407 36.8142 30.1243 36.8142 30.1243L35.7255 31.7242L38.4293 31.2267Z" fill="#4B5B19"/>
<path d="M38.5705 29.4691C38.5705 29.4691 37.3306 30.0167 37.0518 30.2681L36.7729 30.5196L35.8203 29.425C35.8203 29.425 36.9224 28.8844 36.9419 28.9086C36.9607 28.9318 38.5705 29.4691 38.5705 29.4691Z" fill="#6B7B3E"/>
<path d="M38.5704 29.4692C37.7177 28.8032 37.2031 28.072 37.2031 28.072L35.8209 29.4261L38.5704 29.4692Z" fill="#4B5B19"/>
<path d="M38.3695 27.2611C38.3695 27.2611 37.2895 28.0808 37.0766 28.3894L36.8633 28.6997L35.6842 27.854C35.6842 27.854 36.6318 27.0734 36.6551 27.0921C36.6793 27.1101 38.3685 27.2618 38.3685 27.2618L38.3695 27.2611Z" fill="#6B7B3E"/>
<path d="M38.3703 27.2611C37.3866 26.8104 36.7165 26.2166 36.7165 26.2166L35.6849 27.8541L38.3703 27.2611Z" fill="#4B5B19"/>
<path d="M37.3017 32.5302C37.3017 32.5302 36.1934 33.3106 35.9701 33.6127L35.7468 33.9149L34.5985 33.0287C34.5985 33.0287 35.5727 32.2826 35.5959 32.3013C35.6198 32.321 37.3024 32.5312 37.3024 32.5312L37.3017 32.5302Z" fill="#6B7B3E"/>
<path d="M37.3024 32.5301C36.3352 32.0442 35.6873 31.4278 35.6873 31.4278L34.5985 33.0276L37.3024 32.5301Z" fill="#4B5B19"/>
<path d="M35.8153 34.1027C35.8153 34.1027 34.7071 34.8831 34.4838 35.1852L34.2605 35.4874L33.1122 34.6012C33.1122 34.6012 34.0863 33.8551 34.1096 33.8738C34.1335 33.8935 35.816 34.1037 35.816 34.1037L35.8153 34.1027Z" fill="#6B7B3E"/>
<path d="M35.816 34.1027C34.8488 33.6167 34.2009 33.0003 34.2009 33.0003L33.1122 34.6001L35.816 34.1027Z" fill="#4B5B19"/>
<path d="M37.4435 30.7726C37.4435 30.7726 36.2036 31.3201 35.9248 31.5716L35.646 31.823L34.6934 30.7285C34.6934 30.7285 35.7954 30.1879 35.8149 30.2121C35.8337 30.2353 37.4435 30.7726 37.4435 30.7726Z" fill="#6B7B3E"/>
<path d="M37.4434 30.7726C36.5907 30.1067 36.0761 29.3755 36.0761 29.3755L34.6939 30.7296L37.4434 30.7726Z" fill="#4B5B19"/>
<path d="M37.2426 28.5652C37.2426 28.5652 36.1626 29.3849 35.9496 29.6935L35.7364 30.0037L34.5572 29.1581C34.5572 29.1581 35.5049 28.3775 35.5281 28.3962C35.5513 28.4149 37.2415 28.5659 37.2415 28.5659L37.2426 28.5652Z" fill="#6B7B3E"/>
<path d="M37.2433 28.5652C36.2596 28.1145 35.5896 27.5207 35.5896 27.5207L34.5573 29.1571L37.2426 28.5642L37.2433 28.5652Z" fill="#4B5B19"/>
<path d="M38.1683 24.9811C38.1683 24.9811 37.3308 26.0467 37.2023 26.3999L37.0737 26.753L35.7186 26.2327C35.7186 26.2327 36.4382 25.2385 36.4661 25.2509C36.4941 25.2634 38.1666 24.9808 38.1666 24.9808L38.1683 24.9811Z" fill="#6B7B3E"/>
<path d="M38.1698 24.9811C37.1041 24.7933 36.3063 24.3886 36.3063 24.3886L35.7218 26.2331L38.1698 24.9811Z" fill="#4B5B19"/>
<path d="M37.5946 23.4226C37.5946 23.4226 36.6116 24.3562 36.4347 24.6868L36.2568 25.018L34.9912 24.3077C34.9912 24.3077 35.8471 23.4277 35.8727 23.4432C35.8983 23.4588 37.5946 23.4226 37.5946 23.4226Z" fill="#6B7B3E"/>
<path d="M37.595 23.4227C36.568 23.0824 35.8368 22.5663 35.8368 22.5663L34.9916 24.3078L37.595 23.4227Z" fill="#4B5B19"/>
<path d="M36.839 21.1516C36.839 21.1516 36.0981 22.2864 36.0017 22.6492L35.9052 23.012L34.5101 22.6135C34.5101 22.6135 35.1392 21.5593 35.1686 21.5693C35.1972 21.5783 36.839 21.1516 36.839 21.1516Z" fill="#6B7B3E"/>
<path d="M36.8382 21.1517C35.7601 21.0579 34.9299 20.7246 34.9299 20.7246L34.5092 22.6136L36.8382 21.1517Z" fill="#4B5B19"/>
<path d="M36.0038 38.4175C36.0038 38.4175 34.6646 38.2135 34.2931 38.276L33.9233 38.3388L33.7081 36.904C33.7081 36.904 34.928 37.0408 34.9314 37.07C34.9355 37.1002 36.0038 38.4175 36.0038 38.4175Z" fill="#6B7B3E"/>
<path d="M36.0047 38.4175C35.643 37.3975 35.6028 36.5037 35.6028 36.5037L33.709 36.9041L36.0047 38.4175Z" fill="#4B5B19"/>
<path d="M24.9863 48.3465C24.9863 48.3465 24.268 47.1974 23.9798 46.9571L23.6906 46.7175L24.6396 45.6195C24.6396 45.6195 25.3306 46.6341 25.3106 46.6553C25.2895 46.6772 24.988 48.3469 24.988 48.3469L24.9863 48.3465Z" fill="#6B7B3E"/>
<path d="M24.9872 48.3466C25.5257 47.4081 26.1765 46.7953 26.1765 46.7953L24.6394 45.6203L24.9868 48.3483L24.9872 48.3466Z" fill="#4B5B19"/>
<path d="M27.357 48.4116C27.357 48.4116 26.3928 47.4586 26.0558 47.292L25.7188 47.1255L26.3886 45.838C26.3886 45.838 27.2956 46.665 27.2807 46.6917C27.2659 46.7183 27.357 48.4116 27.357 48.4116Z" fill="#6B7B3E"/>
<path d="M27.3579 48.4116C27.6653 47.374 28.1569 46.6266 28.1569 46.6266L26.3905 45.8373L27.3589 48.4109L27.3579 48.4116Z" fill="#4B5B19"/>
<path d="M29.5007 48.1069C29.5007 48.1069 28.3273 47.4283 27.9589 47.3522L27.5915 47.2754L27.9134 45.8604C27.9134 45.8604 29.0001 46.4314 28.9918 46.4611C28.9835 46.4908 29.5 48.1059 29.5 48.1059L29.5007 48.1069Z" fill="#6B7B3E"/>
<path d="M29.5017 48.1069C29.5363 47.0256 29.8236 46.1787 29.8236 46.1787L27.9141 45.8621L29.5007 48.1076L29.5017 48.1069Z" fill="#4B5B19"/>
<path d="M31.1822 47.9653C31.1822 47.9653 30.0007 47.3012 29.6317 47.2286L29.2626 47.1559L29.5683 45.7369C29.5683 45.7369 30.661 46.2948 30.6544 46.3248C30.6472 46.3538 31.1815 47.9642 31.1815 47.9642L31.1822 47.9653Z" fill="#6B7B3E"/>
<path d="M31.1816 47.9653C31.2038 46.8834 31.4812 46.0328 31.4812 46.0328L29.5684 45.7379L31.1816 47.9653Z" fill="#4B5B19"/>
<path d="M34.5785 46.1576C34.5785 46.1576 33.3818 45.5219 33.0111 45.4579L32.6411 45.3948L32.913 43.9703C32.913 43.9703 34.0186 44.503 34.012 44.533C34.0054 44.563 34.5782 46.1593 34.5782 46.1593L34.5785 46.1576Z" fill="#6B7B3E"/>
<path d="M34.5792 46.1577C34.5756 45.0753 34.8336 44.2184 34.8336 44.2184L32.9141 43.9686L34.5792 46.1577Z" fill="#4B5B19"/>
<path d="M33.2093 47.2423C33.2093 47.2423 32.0127 46.6066 31.642 46.5426L31.2719 46.4796L31.5449 45.0543C31.5449 45.0543 32.6505 45.5871 32.6439 45.617C32.6373 45.647 33.21 47.2434 33.21 47.2434L33.2093 47.2423Z" fill="#6B7B3E"/>
<path d="M33.2101 47.2424C33.2065 46.1601 33.4645 45.3032 33.4645 45.3032L31.5449 45.0533L33.2101 47.2424Z" fill="#4B5B19"/>
<path d="M36.4179 44.6735C36.4179 44.6735 35.0993 44.361 34.7247 44.3926L34.3509 44.4252L34.2542 42.9772C34.2542 42.9772 35.4589 43.2128 35.4603 43.2434C35.4616 43.2739 36.4186 44.6745 36.4186 44.6745L36.4179 44.6735Z" fill="#6B7B3E"/>
<path d="M36.4176 44.6735C36.1413 43.6269 36.1734 42.7334 36.1734 42.7334L34.2539 42.9772L36.4176 44.6735Z" fill="#4B5B19"/>
<path d="M37.7636 43.1431C37.7636 43.1431 36.4244 42.9391 36.0528 43.0016L35.6831 43.0644L35.4679 41.6296C35.4679 41.6296 36.6878 41.7664 36.6912 41.7956C36.6953 41.8258 37.7636 43.1431 37.7636 43.1431Z" fill="#6B7B3E"/>
<path d="M37.7645 43.1431C37.4028 42.1231 37.3626 41.2293 37.3626 41.2293L35.4688 41.6296L37.7645 43.1431Z" fill="#4B5B19"/>
<path d="M39.0436 41.7122C39.0436 41.7122 37.702 41.5158 37.3326 41.5814L36.9625 41.646L36.7391 40.2123C36.7391 40.2123 37.9596 40.3411 37.9637 40.3714C37.9678 40.4016 39.0446 41.7115 39.0446 41.7115L39.0436 41.7122Z" fill="#6B7B3E"/>
<path d="M39.0428 41.7122C38.6753 40.6948 38.6289 39.8007 38.6289 39.8007L36.7383 40.2123L39.0428 41.7122Z" fill="#4B5B19"/>
<path d="M22.4772 47.7289C22.4772 47.7289 22.1707 46.4088 21.9745 46.0878L21.7783 45.7668L23.0309 45.0352C23.0309 45.0352 23.357 46.2188 23.3293 46.2332C23.3026 46.2469 22.4755 47.7285 22.4755 47.7285L22.4772 47.7289Z" fill="#6B7B3E"/>
<path d="M22.4763 47.7288C23.2898 47.0156 24.1043 46.6454 24.1043 46.6454L23.031 45.0344L22.4766 47.7271L22.4763 47.7288Z" fill="#4B5B19"/>
<path d="M27.3672 7.32007L28.7181 7.62712L28.7339 7.00273L27.3672 7.32007Z" fill="#261C02"/>
<path d="M26.8523 4.33294C26.8523 4.33294 27.4816 4.64239 28.1215 4.62809C28.7622 4.61482 28.7087 4.35568 28.7087 4.35568L28.629 3.91934C28.629 3.91934 28.361 4.18891 27.9629 4.26958C27.5637 4.35095 26.8516 4.33191 26.8516 4.33191L26.8523 4.33294Z" fill="#261C02"/>
<path d="M27.3425 6.56231C27.3425 6.56231 27.9719 6.87174 28.6118 6.85745C29.2524 6.84418 29.1989 6.58505 29.1989 6.58505L29.1192 6.14871C29.1192 6.14871 28.8513 6.41828 28.4531 6.49895C28.0539 6.58032 27.3418 6.56128 27.3418 6.56128L27.3425 6.56231Z" fill="#261C02"/>
<path d="M32.932 45.7689C32.932 45.7689 31.7353 45.1333 31.3646 45.0692L30.9946 45.0062L31.2665 43.5816C31.2665 43.5816 32.3721 44.1144 32.3655 44.1444C32.3589 44.1743 32.9317 45.7707 32.9317 45.7707L32.932 45.7689Z" fill="#6B7B3E"/>
<path d="M32.9327 45.769C32.9291 44.6867 33.1871 43.8298 33.1871 43.8298L31.2676 43.58L32.9327 45.769Z" fill="#4B5B19"/>
<path d="M31.432 46.4607C31.432 46.4607 30.2353 45.825 29.8646 45.761L29.4946 45.6979L29.7665 44.2734C29.7665 44.2734 30.8721 44.8061 30.8655 44.8361C30.8589 44.8661 31.4317 46.4624 31.4317 46.4624L31.432 46.4607Z" fill="#6B7B3E"/>
<path d="M31.4327 46.4607C31.4292 45.3784 31.6872 44.5215 31.6872 44.5215L29.7676 44.2717L31.432 46.4597L31.4327 46.4607Z" fill="#4B5B19"/>
<path d="M29.6918 46.8011C29.6918 46.8011 28.4951 46.1654 28.1244 46.1013L27.7544 46.0383L28.0263 44.6138C28.0263 44.6138 29.1318 45.1465 29.1253 45.1765C29.1187 45.2064 29.6914 46.8028 29.6914 46.8028L29.6918 46.8011Z" fill="#6B7B3E"/>
<path d="M29.6925 46.8011C29.6889 45.7188 29.9469 44.8619 29.9469 44.8619L28.0273 44.6121L29.6925 46.8011Z" fill="#4B5B19"/>
<path d="M27.9945 47.0093C27.9945 47.0093 26.7978 46.3736 26.4271 46.3096L26.0571 46.2465L26.329 44.822C26.329 44.822 27.4346 45.3547 27.428 45.3847C27.4214 45.4147 27.9942 47.011 27.9942 47.011L27.9945 47.0093Z" fill="#6B7B3E"/>
<path d="M27.9952 47.0093C27.9916 45.927 28.2496 45.0701 28.2496 45.0701L26.3301 44.8203L27.9952 47.0093Z" fill="#4B5B19"/>
<path d="M25.8504 47.0128C25.8504 47.0128 25.1543 45.8501 24.8699 45.6043L24.5854 45.3584L25.5548 44.2795C25.5548 44.2795 26.2265 45.3073 26.2054 45.3292C26.1843 45.3511 25.8494 47.0135 25.8494 47.0135L25.8504 47.0128Z" fill="#6B7B3E"/>
<path d="M25.8498 47.0129C26.406 46.0849 27.0696 45.4843 27.0696 45.4843L25.5553 44.2788L25.8498 47.0129Z" fill="#4B5B19"/>
<path d="M35.7986 36.4581C35.7986 36.4581 34.4652 36.6987 34.1347 36.8788L33.8053 37.0582L33.1366 35.7703C33.1366 35.7703 34.3346 35.5049 34.3483 35.5316C34.3609 35.5589 35.7993 36.4591 35.7993 36.4591L35.7986 36.4581Z" fill="#6B7B3E"/>
<path d="M35.7987 36.458C35.1261 35.6094 34.7983 34.778 34.7983 34.778L33.1367 35.7703L35.7987 36.458Z" fill="#4B5B19"/>
<path d="M35.5983 32.0147C35.5983 32.0147 34.3936 32.6358 34.1311 32.9047L33.8679 33.1725L32.8516 32.1364C32.8516 32.1364 33.9196 31.5304 33.9394 31.5529C33.9603 31.5747 35.5977 32.0137 35.5977 32.0137L35.5983 32.0147Z" fill="#6B7B3E"/>
<path d="M35.5978 32.0148C34.7057 31.4011 34.1484 30.702 34.1484 30.702L32.8499 32.1371L35.5978 32.0148Z" fill="#4B5B19"/>
<path d="M35.6687 28.0863C35.6687 28.0863 34.4639 28.7074 34.2014 28.9762L33.9382 29.244L32.9219 28.2079C32.9219 28.2079 33.9899 27.6019 34.0097 27.6244C34.0306 27.6462 35.669 28.0845 35.669 28.0845L35.6687 28.0863Z" fill="#6B7B3E"/>
<path d="M35.6681 28.0863C34.776 27.4727 34.2187 26.7735 34.2187 26.7735L32.9203 28.2086L35.6681 28.0863Z" fill="#4B5B19"/>
<path d="M35.6648 25.526C35.6648 25.526 34.46 26.1472 34.1975 26.416L33.9343 26.6838L32.918 25.6477C32.918 25.6477 33.986 25.0417 34.0059 25.0642C34.0267 25.086 35.6641 25.525 35.6641 25.525L35.6648 25.526Z" fill="#6B7B3E"/>
<path d="M35.6642 25.5261C34.7721 24.9125 34.2148 24.2133 34.2148 24.2133L32.9164 25.6485L35.6642 25.5261Z" fill="#4B5B19"/>
<path d="M36.1648 27.0603C36.1648 27.0603 34.96 27.6814 34.6975 27.9502L34.4343 28.218L33.418 27.1819C33.418 27.1819 34.486 26.5759 34.5058 26.5984C34.5257 26.6209 36.1641 27.0592 36.1641 27.0592L36.1648 27.0603Z" fill="#6B7B3E"/>
<path d="M36.1642 27.0603C35.2721 26.4467 34.7148 25.7475 34.7148 25.7475L33.4164 27.1826L36.1642 27.0603Z" fill="#4B5B19"/>
<path d="M35.7175 23.5538C35.7175 23.5538 34.5127 24.1749 34.2502 24.4437L33.987 24.7115L32.9707 23.6754C32.9707 23.6754 34.0387 23.0694 34.0586 23.0919C34.0794 23.1137 35.7168 23.5528 35.7168 23.5528L35.7175 23.5538Z" fill="#6B7B3E"/>
<path d="M35.7169 23.5538C34.8248 22.9402 34.2675 22.2411 34.2675 22.2411L32.9691 23.6762L35.7169 23.5538Z" fill="#4B5B19"/>
<path d="M35.5945 21.5733C35.5945 21.5733 34.3897 22.1944 34.1272 22.4632L33.864 22.731L32.8477 21.6949C32.8477 21.6949 33.9157 21.0889 33.9356 21.1114C33.9554 21.1339 35.5938 21.5723 35.5938 21.5723L35.5945 21.5733Z" fill="#6B7B3E"/>
<path d="M35.5939 21.5733C34.7018 20.9597 34.1445 20.2606 34.1445 20.2606L32.846 21.6957L35.5939 21.5733Z" fill="#4B5B19"/>
<path d="M34.0506 38.1586C34.0506 38.1586 32.7171 38.3993 32.3867 38.5793L32.0573 38.7587L31.3886 37.4708C31.3886 37.4708 32.5866 37.2054 32.6002 37.2321C32.6129 37.2595 34.0513 38.1596 34.0513 38.1596L34.0506 38.1586Z" fill="#6B7B3E"/>
<path d="M34.0507 38.1586C33.3788 37.311 33.0503 36.4785 33.0503 36.4785L31.3887 37.4708L34.0507 38.1586Z" fill="#4B5B19"/>
<path d="M31.0452 42.7427C31.0452 42.7427 29.7785 42.2597 29.4035 42.2421L29.0284 42.2246L29.1226 40.777C29.1226 40.777 30.2863 41.1682 30.2831 41.1988C30.28 41.2294 31.0462 42.742 31.0462 42.742L31.0452 42.7427Z" fill="#6B7B3E"/>
<path d="M31.0456 42.7427C30.9083 41.669 31.0578 40.787 31.0578 40.787L29.123 40.7771L31.0466 42.742L31.0456 42.7427Z" fill="#4B5B19"/>
<path d="M28.3558 45.3496C28.3558 45.3496 27.0891 44.8666 26.714 44.8491L26.3389 44.8315L26.4332 43.384C26.4332 43.384 27.5968 43.7751 27.5937 43.8057C27.5906 43.8364 28.3568 45.3489 28.3568 45.3489L28.3558 45.3496Z" fill="#6B7B3E"/>
<path d="M28.3562 45.3497C28.2189 44.2759 28.3683 43.394 28.3683 43.394L26.4336 43.384L28.3562 45.3497Z" fill="#4B5B19"/>
<path d="M33.1326 39.9549C33.1326 39.9549 31.7992 40.1955 31.4687 40.3756L31.1393 40.555L30.4706 39.2671C30.4706 39.2671 31.6686 39.0017 31.6823 39.0284C31.6949 39.0557 33.1333 39.9559 33.1333 39.9559L33.1326 39.9549Z" fill="#6B7B3E"/>
<path d="M33.1327 39.9549C32.4608 39.1073 32.1323 38.2748 32.1323 38.2748L30.4707 39.2671L33.1327 39.9549Z" fill="#4B5B19"/>
<path d="M32.2791 41.357C32.2791 41.357 30.9456 41.5976 30.6152 41.7777L30.2858 41.9571L29.6171 40.6692C29.6171 40.6692 30.8161 40.4031 30.8288 40.4304C30.8414 40.4578 32.2798 41.358 32.2798 41.358L32.2791 41.357Z" fill="#6B7B3E"/>
<path d="M32.2799 41.357C31.608 40.5094 31.2795 39.6769 31.2795 39.6769L29.6172 40.6682L32.2792 41.356L32.2799 41.357Z" fill="#4B5B19"/>
<path d="M34.3089 44.3692C34.3089 44.3692 33.1123 43.7335 32.7415 43.6694L32.3715 43.6064L32.6445 42.1812C32.6445 42.1812 33.7501 42.7139 33.7435 42.7439C33.7369 42.7739 34.3096 44.3702 34.3096 44.3702L34.3089 44.3692Z" fill="#6B7B3E"/>
<path d="M34.3097 44.3692C34.3061 43.2869 34.5641 42.43 34.5641 42.43L32.6445 42.1802L34.3097 44.3692Z" fill="#4B5B19"/>
<path d="M35.9034 43.1372C35.9034 43.1372 34.5788 42.8512 34.2053 42.891L33.8319 42.9309L33.7053 41.4852C33.7053 41.4852 34.9146 41.6967 34.916 41.7273C34.9173 41.7579 35.9034 43.1372 35.9034 43.1372Z" fill="#6B7B3E"/>
<path d="M35.9031 43.1372C35.6052 42.0964 35.6193 41.203 35.6193 41.203L33.7051 41.4852L35.9031 43.1372Z" fill="#4B5B19"/>
<path d="M36.0792 41.5475C36.0792 41.5475 34.7546 41.2615 34.3811 41.3013L34.0077 41.3411L33.8811 39.8955C33.8811 39.8955 35.0904 40.107 35.0918 40.1376C35.0931 40.1682 36.0781 41.5482 36.0781 41.5482L36.0792 41.5475Z" fill="#6B7B3E"/>
<path d="M36.0789 41.5475C35.781 40.5066 35.7951 39.6133 35.7951 39.6133L33.8809 39.8955L36.0789 41.5475Z" fill="#4B5B19"/>
<path d="M38.0772 38.3984C38.0772 38.3984 36.7526 38.1124 36.3792 38.1523L36.0057 38.1921L35.8792 36.7464C35.8792 36.7464 37.0885 36.9579 37.0898 36.9885C37.0911 37.0191 38.0772 38.3984 38.0772 38.3984Z" fill="#6B7B3E"/>
<path d="M38.0769 38.3984C37.779 37.3576 37.7932 36.4643 37.7932 36.4643L35.8789 36.7465L38.0769 38.3984Z" fill="#4B5B19"/>
<path d="M36.9795 40.3623C36.9795 40.3623 35.655 40.0763 35.2815 40.1161L34.9081 40.156L34.7815 38.7103C34.7815 38.7103 35.9908 38.9218 35.9922 38.9524C35.9935 38.983 36.9795 40.3623 36.9795 40.3623Z" fill="#6B7B3E"/>
<path d="M36.9793 40.3623C36.6814 39.3215 36.6955 38.4281 36.6955 38.4281L34.7812 38.7103L36.9793 40.3623Z" fill="#4B5B19"/>
<path d="M34.9991 39.9136C34.9991 39.9136 33.6745 39.6276 33.3011 39.6674L32.9276 39.7072L32.801 38.2616C32.801 38.2616 34.0104 38.4731 34.0117 38.5037C34.013 38.5343 34.9991 39.9136 34.9991 39.9136Z" fill="#6B7B3E"/>
<path d="M34.9988 39.9136C34.7009 38.8727 34.715 37.9794 34.715 37.9794L32.8008 38.2616L34.9988 39.9136Z" fill="#4B5B19"/>
<path d="M34.2901 41.6864C34.2901 41.6864 32.9655 41.4004 32.5921 41.4402L32.2186 41.4801L32.0921 40.0344C32.0921 40.0344 33.3014 40.2459 33.3027 40.2765C33.3041 40.3071 34.2908 41.6874 34.2908 41.6874L34.2901 41.6864Z" fill="#6B7B3E"/>
<path d="M34.2899 41.6864C33.9919 40.6455 34.0061 39.7522 34.0061 39.7522L32.0918 40.0344L34.2899 41.6864Z" fill="#4B5B19"/>
<path d="M33.3624 43.1863C33.3624 43.1863 32.0378 42.9003 31.6643 42.9401L31.2909 42.98L31.1643 41.5343C31.1643 41.5343 32.3737 41.7458 32.375 41.7764C32.3763 41.807 33.3624 43.1863 33.3624 43.1863Z" fill="#6B7B3E"/>
<path d="M33.3621 43.1863C33.0642 42.1454 33.0783 41.2521 33.0783 41.2521L31.1641 41.5343L33.3621 43.1863Z" fill="#4B5B19"/>
<path d="M31.8049 44.851C31.8049 44.851 30.5765 44.2789 30.2029 44.2348L29.8293 44.1907L30.0261 42.7529C30.0261 42.7529 31.1589 43.2265 31.1534 43.2558C31.1485 43.2861 31.8042 44.8499 31.8042 44.8499L31.8049 44.851Z" fill="#6B7B3E"/>
<path d="M31.8054 44.851C31.7461 43.7706 31.9572 42.9021 31.9572 42.9021L30.0273 42.7539L31.8044 44.8517L31.8054 44.851Z" fill="#4B5B19"/>
<path d="M30.4787 45.6115C30.4787 45.6115 29.2503 45.0394 28.8767 44.9953L28.5031 44.9513L28.7 43.5134C28.7 43.5134 29.8328 43.987 29.8272 44.0163C29.8224 44.0466 30.478 45.6105 30.478 45.6105L30.4787 45.6115Z" fill="#6B7B3E"/>
<path d="M30.4793 45.6115C30.4193 44.5301 30.6311 43.6626 30.6311 43.6626L28.7012 43.5144L30.4782 45.6122L30.4793 45.6115Z" fill="#4B5B19"/>
<path d="M19.8165 13.2609C19.8165 13.2609 20.9788 13.7249 21.3246 13.7459L21.6705 13.7669L21.5628 15.1021C21.5628 15.1021 20.4949 14.7237 20.4973 14.6965C20.5008 14.6686 19.8154 13.2616 19.8154 13.2616L19.8165 13.2609Z" fill="#6B7B3E"/>
<path d="M19.8171 13.2608C19.9288 14.253 19.7784 15.0651 19.7784 15.0651L21.5645 15.1013L19.8182 13.2601L19.8171 13.2608Z" fill="#4B5B19"/>
<path d="M15.6934 18.0018C15.6934 18.0018 16.9434 18.0551 17.2774 17.9595L17.6104 17.8647L17.9521 19.1593C17.9521 19.1593 16.8192 19.1569 16.8127 19.1298C16.8063 19.1027 15.6934 18.0018 15.6934 18.0018Z" fill="#6B7B3E"/>
<path d="M15.6924 18.0018C16.1268 18.9017 16.2533 19.7173 16.2533 19.7173L17.9502 19.16L15.6924 18.0018Z" fill="#4B5B19"/>
<path d="M16.7637 16.3031C16.7637 16.3031 18.0137 16.3563 18.3477 16.2608L18.6808 16.166L19.0225 17.4606C19.0225 17.4606 17.8895 17.4581 17.8831 17.431C17.8766 17.4039 16.7637 16.3031 16.7637 16.3031Z" fill="#6B7B3E"/>
<path d="M16.7627 16.3031C17.1971 17.2029 17.3236 18.0185 17.3236 18.0185L19.0205 17.4613L16.7627 16.3031Z" fill="#4B5B19"/>
<path d="M18.1699 14.6663C18.1699 14.6663 19.3961 14.9158 19.7403 14.8748L20.0845 14.8339L20.2182 16.1667C20.2182 16.1667 19.1004 15.9859 19.0977 15.9577C19.0967 15.9299 18.1706 14.6673 18.1706 14.6673L18.1699 14.6663Z" fill="#6B7B3E"/>
<path d="M18.1705 14.6663C18.4576 15.623 18.4545 16.4488 18.4545 16.4488L20.2182 16.1657L18.1705 14.6663Z" fill="#4B5B19"/>
<path d="M12.7539 25.8363C12.7539 25.8363 13.9364 25.4269 14.2118 25.2168L14.4873 25.0066L15.2795 26.0859C15.2795 26.0859 14.2239 26.4988 14.2086 26.4763C14.1932 26.4537 12.7539 25.8363 12.7539 25.8363Z" fill="#6B7B3E"/>
<path d="M12.7539 25.8363C13.4874 26.5144 13.9048 27.2263 13.9048 27.2263L15.2795 26.0859L12.7539 25.8363Z" fill="#4B5B19"/>
<path d="M13.1094 24.0653C13.1094 24.0653 14.2919 23.6559 14.5673 23.4458L14.8428 23.2356L15.635 24.3149C15.635 24.3149 14.5794 24.7278 14.5641 24.7053C14.5487 24.6827 13.1094 24.0653 13.1094 24.0653Z" fill="#6B7B3E"/>
<path d="M13.1094 24.0653C13.8429 24.7434 14.2603 25.4553 14.2603 25.4553L15.635 24.3149L13.1094 24.0653Z" fill="#4B5B19"/>
<path d="M13.6944 21.9773C13.6944 21.9773 14.9244 21.7456 15.2274 21.5782L15.5305 21.4108L16.1555 22.5949C16.1555 22.5949 15.0516 22.8487 15.0393 22.8241C15.0271 22.7994 13.6934 21.978 13.6934 21.978L13.6944 21.9773Z" fill="#6B7B3E"/>
<path d="M13.6952 21.9773C14.3213 22.7555 14.6296 23.5208 14.6296 23.5208L16.1573 22.5941L13.6952 21.9773Z" fill="#4B5B19"/>
<path d="M14.623 19.9973C14.623 19.9973 15.8686 19.881 16.1868 19.7423L16.5049 19.6037L17.0173 20.8405C17.0173 20.8405 15.8938 20.9906 15.8846 20.9639C15.8744 20.9379 14.623 19.9973 14.623 19.9973Z" fill="#6B7B3E"/>
<path d="M14.6235 19.9973C15.1749 20.831 15.4115 21.621 15.4115 21.621L17.0178 20.8404L14.6235 19.9973Z" fill="#4B5B19"/>
<path d="M12.5352 27.7606C12.5352 27.7606 13.7176 27.3512 13.9931 27.1411L14.2686 26.931L15.0607 28.0102C15.0607 28.0102 14.0052 28.4231 13.9898 28.4006C13.9745 28.3781 12.5352 27.7606 12.5352 27.7606Z" fill="#6B7B3E"/>
<path d="M12.5352 27.7606C13.2686 28.4388 13.686 29.1507 13.686 29.1507L15.0607 28.0102L12.5352 27.7606Z" fill="#4B5B19"/>
<path d="M12.2403 29.8653C12.2403 29.8653 13.2957 29.1945 13.5162 28.9257L13.7357 28.6577L14.7555 29.5249C14.7555 29.5249 13.8237 30.1701 13.8032 30.151C13.7828 30.132 12.2396 29.8643 12.2396 29.8643L12.2403 29.8653Z" fill="#6B7B3E"/>
<path d="M12.2402 29.8654C13.1101 30.3561 13.6815 30.9526 13.6815 30.9526L14.7562 29.5259L12.2409 29.8664L12.2402 29.8654Z" fill="#4B5B19"/>
<path d="M12.4805 32.3101C12.4805 32.3101 13.3325 31.3936 13.4769 31.0792L13.6224 30.7641L14.8285 31.3453C14.8285 31.3453 14.0907 32.2049 14.0655 32.1921C14.0403 32.1793 12.4805 32.3101 12.4805 32.3101Z" fill="#6B7B3E"/>
<path d="M12.4805 32.3101C13.446 32.5646 14.1492 32.9978 14.1492 32.9978L14.8285 31.3453L12.4805 32.3101Z" fill="#4B5B19"/>
<path d="M12.9801 33.7362C12.9801 33.7362 13.9559 32.953 14.1442 32.6612L14.3332 32.3704L15.443 33.1208C15.443 33.1208 14.5889 33.8646 14.566 33.8487C14.5432 33.8328 12.9801 33.7362 12.9801 33.7362Z" fill="#6B7B3E"/>
<path d="M12.9805 33.7362C13.8996 34.1274 14.5325 34.6579 14.5325 34.6579L15.4434 33.1208L12.9805 33.7362Z" fill="#4B5B19"/>
<path d="M13.5027 35.8836C13.5027 35.8836 14.2708 34.8968 14.3873 34.5699L14.5037 34.2431L15.7562 34.7162C15.7562 34.7162 15.0968 35.638 15.0712 35.6269C15.0457 35.6158 13.5027 35.8836 13.5027 35.8836Z" fill="#6B7B3E"/>
<path d="M13.502 35.8837C14.4866 36.0517 15.2249 36.4219 15.2249 36.4219L15.7554 34.7162L13.502 35.8837Z" fill="#4B5B19"/>
<path d="M14.3141 37.9285C14.3141 37.9285 14.8079 36.7789 14.8378 36.433L14.8677 36.087L16.1991 36.2289C16.1991 36.2289 15.7942 37.2863 15.7663 37.2828C15.7384 37.2793 14.3134 37.9274 14.3134 37.9274L14.3141 37.9285Z" fill="#6B7B3E"/>
<path d="M14.3145 37.9284C15.3096 37.8432 16.1172 38.0132 16.1172 38.0132L16.1994 36.2288L14.3138 37.9274L14.3145 37.9284Z" fill="#4B5B19"/>
<path d="M15.0593 39.4921C15.0593 39.4921 15.7695 38.4622 15.8666 38.129L15.9637 37.7958L17.2416 38.1961C17.2416 38.1961 16.6369 39.1541 16.6093 39.1444C16.5834 39.1351 15.0586 39.4911 15.0586 39.4911L15.0593 39.4921Z" fill="#6B7B3E"/>
<path d="M15.0586 39.4922C16.0513 39.6037 16.8094 39.9304 16.8094 39.9304L17.2417 38.1972L15.0586 39.4922Z" fill="#4B5B19"/>
<path d="M16.0674 41.3623C16.0674 41.3623 16.5197 40.196 16.5389 39.8498L16.5565 39.5033L17.8922 39.5987C17.8922 39.5987 17.5239 40.6702 17.4967 40.6678C17.4688 40.6643 16.0681 41.3633 16.0681 41.3633L16.0674 41.3623Z" fill="#6B7B3E"/>
<path d="M16.0665 41.3623C17.0585 41.2417 17.8713 41.3842 17.8713 41.3842L17.8913 39.5987L16.0665 41.3623Z" fill="#4B5B19"/>
<path d="M17.7122 43.1866C17.7122 43.1866 17.856 41.944 17.7855 41.6049L17.7151 41.2658L19.0316 41.0201C19.0316 41.0201 18.9459 42.1498 18.9191 42.1545C18.8916 42.1582 17.7119 43.1884 17.7119 43.1884L17.7122 43.1866Z" fill="#6B7B3E"/>
<path d="M17.7117 43.1867C18.6408 42.8194 19.4631 42.7514 19.4631 42.7514L19.0314 41.0185L17.7117 43.1867Z" fill="#4B5B19"/>
<path d="M18.9599 44.0399C18.9599 44.0399 19.2811 42.8309 19.2611 42.4844L19.2412 42.1379L20.5792 42.0846C20.5792 42.0846 20.332 43.1908 20.3034 43.1907C20.2749 43.1907 18.9599 44.0399 18.9599 44.0399Z" fill="#6B7B3E"/>
<path d="M18.959 44.0399C19.9307 43.8101 20.7553 43.862 20.7553 43.862L20.5784 42.0846L18.959 44.0399Z" fill="#4B5B19"/>
<path d="M20.6519 45.4603C20.6519 45.4603 20.6855 44.2101 20.5862 43.8772L20.4859 43.5449L21.7751 43.1843C21.7751 43.1843 21.7896 44.3178 21.7624 44.3242C21.7353 44.3307 20.6508 45.461 20.6508 45.461L20.6519 45.4603Z" fill="#6B7B3E"/>
<path d="M20.6522 45.4604C21.5447 45.0129 22.3584 44.8727 22.3584 44.8727L21.7755 43.1843L20.6522 45.4604Z" fill="#4B5B19"/>
<path d="M22.7115 46.5214C22.7115 46.5214 22.4277 45.3029 22.2472 45.0072L22.0668 44.7115L23.2229 44.0365C23.2229 44.0365 23.5234 45.1296 23.4988 45.1419C23.4738 45.1559 22.7105 46.5221 22.7105 46.5221L22.7115 46.5214Z" fill="#6B7B3E"/>
<path d="M22.7119 46.5214C23.4633 45.8625 24.2142 45.5221 24.2142 45.5221L23.2233 44.0365L22.7109 46.5221L22.7119 46.5214Z" fill="#4B5B19"/>
<path d="M21.1153 13.3679C21.1153 13.3679 22.2776 13.832 22.6235 13.853L22.9693 13.8739L22.8616 15.2091C22.8616 15.2091 21.7937 14.8308 21.7962 14.8036C21.7997 14.7757 21.1143 13.3686 21.1143 13.3686L21.1153 13.3679Z" fill="#6B7B3E"/>
<path d="M21.116 13.3679C21.2267 14.3607 21.0772 15.1722 21.0772 15.1722L22.8633 15.2084L21.117 13.3672L21.116 13.3679Z" fill="#4B5B19"/>
<path d="M16.9922 18.1089C16.9922 18.1089 18.2422 18.1621 18.5763 18.0666L18.9093 17.9718L19.251 19.2664C19.251 19.2664 18.118 19.2639 18.1116 19.2368C18.1051 19.2097 16.9922 18.1089 16.9922 18.1089Z" fill="#6B7B3E"/>
<path d="M16.9912 18.1089C17.4257 19.0087 17.5521 19.8243 17.5521 19.8243L19.249 19.2671L16.9912 18.1089Z" fill="#4B5B19"/>
<path d="M18.0605 16.4102C18.0605 16.4102 19.3106 16.4634 19.6446 16.3679L19.9776 16.2731L20.3193 17.5676C20.3193 17.5676 19.1864 17.5652 19.18 17.5381C19.1735 17.511 18.0605 16.4102 18.0605 16.4102Z" fill="#6B7B3E"/>
<path d="M18.0615 16.4102C18.4959 17.31 18.6224 18.1256 18.6224 18.1256L20.3193 17.5683L18.0615 16.4102Z" fill="#4B5B19"/>
<path d="M19.4688 14.7744C19.4688 14.7744 20.6949 15.0239 21.0392 14.983L21.3834 14.9421L21.5171 16.2748C21.5171 16.2748 20.3992 16.0941 20.3965 16.0659C20.3938 16.0377 19.4694 14.7754 19.4694 14.7754L19.4688 14.7744Z" fill="#6B7B3E"/>
<path d="M19.4694 14.7745C19.7565 15.7312 19.7534 16.557 19.7534 16.557L21.517 16.2739L19.4694 14.7745Z" fill="#4B5B19"/>
<path d="M14.0527 25.9434C14.0527 25.9434 15.2352 25.534 15.5107 25.3238L15.7861 25.1137L16.5783 26.1929C16.5783 26.1929 15.5228 26.6059 15.5074 26.5833C15.4921 26.5608 14.0527 25.9434 14.0527 25.9434Z" fill="#6B7B3E"/>
<path d="M14.0527 25.9434C14.7862 26.6215 15.2037 27.3334 15.2037 27.3334L16.5783 26.1929L14.0527 25.9434Z" fill="#4B5B19"/>
<path d="M14.4082 24.1724C14.4082 24.1724 15.5907 23.763 15.8661 23.5528L16.1416 23.3427L16.9338 24.422C16.9338 24.422 15.8782 24.8349 15.8629 24.8123C15.8475 24.7898 14.4082 24.1724 14.4082 24.1724Z" fill="#6B7B3E"/>
<path d="M14.4082 24.1724C15.1417 24.8505 15.5591 25.5624 15.5591 25.5624L16.9338 24.422L14.4082 24.1724Z" fill="#4B5B19"/>
<path d="M14.9932 22.0844C14.9932 22.0844 16.2222 21.8534 16.5263 21.6852L16.8293 21.5178L17.4544 22.7019C17.4544 22.7019 16.3505 22.9558 16.3382 22.9311C16.3259 22.9065 14.9922 22.0851 14.9922 22.0851L14.9932 22.0844Z" fill="#6B7B3E"/>
<path d="M14.994 22.0843C15.6202 22.8626 15.9284 23.6279 15.9284 23.6279L17.4562 22.7012L14.994 22.0843Z" fill="#4B5B19"/>
<path d="M15.9238 20.1053C15.9238 20.1053 17.1694 19.9891 17.4875 19.8504L17.8057 19.7117L18.3181 20.9485C18.3181 20.9485 17.1946 21.0987 17.1854 21.0719C17.1751 21.0459 15.9249 20.1046 15.9249 20.1046L15.9238 20.1053Z" fill="#6B7B3E"/>
<path d="M15.9234 20.1053C16.4748 20.939 16.7103 21.7298 16.7103 21.7298L18.3166 20.9492L15.9224 20.106L15.9234 20.1053Z" fill="#4B5B19"/>
<path d="M13.834 27.8688C13.834 27.8688 15.0165 27.4594 15.2919 27.2493L15.5674 27.0391L16.3596 28.1184C16.3596 28.1184 15.304 28.5313 15.2887 28.5088C15.2733 28.4862 13.834 27.8688 13.834 27.8688Z" fill="#6B7B3E"/>
<path d="M13.834 27.8688C14.5675 28.5469 14.9849 29.2588 14.9849 29.2588L16.3596 28.1184L13.834 27.8688Z" fill="#4B5B19"/>
<path d="M13.5391 29.9735C13.5391 29.9735 14.5945 29.3026 14.815 29.0339L15.0346 28.7658L16.0543 29.633C16.0543 29.633 15.1225 30.2782 15.1021 30.2592C15.0816 30.2401 13.5384 29.9725 13.5384 29.9725L13.5391 29.9735Z" fill="#6B7B3E"/>
<path d="M13.5391 29.9735C14.4089 30.4642 14.9803 31.0607 14.9803 31.0607L16.055 29.6341L13.5398 29.9745L13.5391 29.9735Z" fill="#4B5B19"/>
<path d="M14.6036 31.0143C14.6036 31.0143 15.659 30.3434 15.8795 30.0746L16.099 29.8066L17.1188 30.6738C17.1188 30.6738 16.187 31.319 16.1665 31.3C16.146 31.2809 14.6029 31.0132 14.6029 31.0132L14.6036 31.0143Z" fill="#6B7B3E"/>
<path d="M14.6035 31.0143C15.4744 31.5043 16.0448 32.1015 16.0448 32.1015L17.1194 30.6748L14.6042 31.0153L14.6035 31.0143Z" fill="#4B5B19"/>
<path d="M15.086 28.9817C15.086 28.9817 16.1414 28.3108 16.3619 28.042L16.5814 27.774L17.6012 28.6412C17.6012 28.6412 16.6694 29.2864 16.6489 29.2673C16.6285 29.2483 15.0853 28.9806 15.0853 28.9806L15.086 28.9817Z" fill="#6B7B3E"/>
<path d="M15.0859 28.9817C15.9568 29.4717 16.5272 30.0689 16.5272 30.0689L17.6018 28.6422L15.0866 28.9827L15.0859 28.9817Z" fill="#4B5B19"/>
<path d="M15.377 26.8629C15.377 26.8629 16.4324 26.192 16.6529 25.9233L16.8724 25.6552L17.8929 26.5234C17.8929 26.5234 16.9611 27.1687 16.9406 27.1496C16.9201 27.1306 15.377 26.8629 15.377 26.8629Z" fill="#6B7B3E"/>
<path d="M15.377 26.8629C16.2479 27.3529 16.8182 27.9502 16.8182 27.9502L17.8929 26.5235L15.3777 26.8639L15.377 26.8629Z" fill="#4B5B19"/>
<path d="M16.209 23.7756C16.209 23.7756 17.4239 23.4777 17.7185 23.2935L18.0121 23.11L18.7011 24.2581C18.7011 24.2581 17.6126 24.5719 17.5986 24.547C17.5846 24.522 16.209 23.7756 16.209 23.7756Z" fill="#6B7B3E"/>
<path d="M16.209 23.7756C16.8767 24.5181 17.2264 25.2671 17.2264 25.2671L18.7011 24.2581L16.209 23.7756Z" fill="#4B5B19"/>
<path d="M16.6836 21.5223C16.6836 21.5223 17.8985 21.2244 18.1931 21.0402L18.4867 20.8567L19.1757 22.0048C19.1757 22.0048 18.0872 22.3186 18.0732 22.2937C18.0592 22.2687 16.6836 21.5223 16.6836 21.5223Z" fill="#6B7B3E"/>
<path d="M16.6836 21.5223C17.3514 22.2648 17.701 23.0138 17.701 23.0138L19.1757 22.0048L16.6836 21.5223Z" fill="#4B5B19"/>
<path d="M13.7812 32.4174C13.7812 32.4174 14.6333 31.5009 14.7777 31.1865L14.9232 30.8714L16.1293 31.4526C16.1293 31.4526 15.3915 32.3123 15.3663 32.2994C15.3411 32.2866 13.7812 32.4174 13.7812 32.4174Z" fill="#6B7B3E"/>
<path d="M13.7812 32.4174C14.7468 32.6719 15.45 33.1051 15.45 33.1051L16.1293 31.4526L13.7812 32.4174Z" fill="#4B5B19"/>
<path d="M14.2809 33.8435C14.2809 33.8435 15.2567 33.0603 15.445 32.7685L15.634 32.4777L16.7438 33.2281C16.7438 33.2281 15.8897 33.9719 15.8668 33.956C15.844 33.94 14.2809 33.8435 14.2809 33.8435Z" fill="#6B7B3E"/>
<path d="M14.2812 33.8435C15.2004 34.2347 15.8333 34.7652 15.8333 34.7652L16.7442 33.2281L14.2812 33.8435Z" fill="#4B5B19"/>
<path d="M14.8015 35.9907C14.8015 35.9907 15.5697 35.0039 15.6861 34.677L15.8025 34.3501L17.055 34.8233C17.055 34.8233 16.3956 35.745 16.3701 35.7339C16.3445 35.7229 14.8015 35.9907 14.8015 35.9907Z" fill="#6B7B3E"/>
<path d="M14.8008 35.9907C15.7854 36.1587 16.5238 36.529 16.5238 36.529L17.0543 34.8233L14.8008 35.9907Z" fill="#4B5B19"/>
<path d="M15.6149 38.0359C15.6149 38.0359 16.1087 36.8863 16.1386 36.5404L16.1685 36.1944L17.4999 36.3363C17.4999 36.3363 17.095 37.3938 17.0671 37.3903C17.0392 37.3868 15.6142 38.0349 15.6142 38.0349L15.6149 38.0359Z" fill="#6B7B3E"/>
<path d="M15.6152 38.0358C16.6104 37.9506 17.418 38.1207 17.418 38.1207L17.5002 36.3362L15.6145 38.0348L15.6152 38.0358Z" fill="#4B5B19"/>
<path d="M16.3581 39.5985C16.3581 39.5985 17.0684 38.5685 17.1655 38.2353L17.2626 37.9021L18.5405 38.3024C18.5405 38.3024 17.9358 39.2605 17.9082 39.2508C17.8823 39.2414 16.3574 39.5974 16.3574 39.5974L16.3581 39.5985Z" fill="#6B7B3E"/>
<path d="M16.3574 39.5985C17.3501 39.71 18.1083 40.0368 18.1083 40.0368L18.5405 38.3035L16.3574 39.5985Z" fill="#4B5B19"/>
<path d="M17.3682 41.4686C17.3682 41.4686 17.8205 40.3023 17.8397 39.9561L17.8572 39.6096L19.193 39.705C19.193 39.705 18.8247 40.7766 18.7975 40.7741C18.7696 40.7706 17.3689 41.4697 17.3689 41.4697L17.3682 41.4686Z" fill="#6B7B3E"/>
<path d="M17.3672 41.4686C18.3593 41.348 19.1721 41.4905 19.1721 41.4905L19.1921 39.705L17.3672 41.4686Z" fill="#4B5B19"/>
<path d="M19.0111 43.2947C19.0111 43.2947 19.1548 42.052 19.0844 41.7129L19.0139 41.3738L20.3304 41.1281C20.3304 41.1281 20.2447 42.2578 20.2179 42.2625C20.1905 42.2662 19.0107 43.2964 19.0107 43.2964L19.0111 43.2947Z" fill="#6B7B3E"/>
<path d="M19.0105 43.2947C19.9396 42.9274 20.7619 42.8594 20.7619 42.8594L20.3302 41.1265L19.0105 43.2947Z" fill="#4B5B19"/>
<path d="M20.2587 44.1479C20.2587 44.1479 20.5799 42.9389 20.5599 42.5924L20.54 42.2459L21.878 42.1927C21.878 42.1927 21.6308 43.2988 21.6022 43.2988C21.5737 43.2987 20.2587 44.1479 20.2587 44.1479Z" fill="#6B7B3E"/>
<path d="M20.2578 44.1479C21.2296 43.9181 22.0541 43.9701 22.0541 43.9701L21.8772 42.1927L20.2578 44.1479Z" fill="#4B5B19"/>
<path d="M21.9507 45.5676C21.9507 45.5676 21.9843 44.3174 21.885 43.9845L21.7847 43.6522L23.074 43.2916C23.074 43.2916 23.0884 44.4251 23.0613 44.4315C23.0342 44.438 21.9497 45.5683 21.9497 45.5683L21.9507 45.5676Z" fill="#6B7B3E"/>
<path d="M21.951 45.5677C22.8435 45.1202 23.6573 44.98 23.6573 44.98L23.0743 43.2916L21.951 45.5677Z" fill="#4B5B19"/>
<path d="M24.0123 46.6294C24.0123 46.6294 23.7284 45.4109 23.548 45.1152L23.3676 44.8195L24.5237 44.1445C24.5237 44.1445 24.8242 45.2377 24.7996 45.2499C24.7746 45.2639 24.0113 46.6301 24.0113 46.6301L24.0123 46.6294Z" fill="#6B7B3E"/>
<path d="M24.0127 46.6294C24.7641 45.9705 25.515 45.6301 25.515 45.6301L24.5241 44.1446L24.0117 46.6301L24.0127 46.6294Z" fill="#4B5B19"/>
<path d="M15.6232 32.6543C15.6232 32.6543 16.702 32.02 16.9298 31.7598L17.1587 31.4988L18.1486 32.4014C18.1486 32.4014 17.1962 33.0142 17.175 32.9941C17.1555 32.9743 15.6225 32.6533 15.6225 32.6533L15.6232 32.6543Z" fill="#6B7B3E"/>
<path d="M15.623 32.6543C16.4757 33.1748 17.0256 33.7904 17.0256 33.7904L18.1484 32.4014L15.623 32.6543Z" fill="#4B5B19"/>
<path d="M15.6037 31.4573C15.6037 31.4573 16.6825 30.8229 16.9103 30.5627L17.1392 30.3018L18.1291 31.2044C18.1291 31.2044 17.1766 31.8171 17.1555 31.797C17.136 31.7773 15.603 31.4562 15.603 31.4562L15.6037 31.4573Z" fill="#6B7B3E"/>
<path d="M15.6035 31.4573C16.4562 31.9777 17.006 32.5934 17.006 32.5934L18.1289 31.2044L15.6035 31.4573Z" fill="#4B5B19"/>
<path d="M15.8674 34.9933C15.8674 34.9933 16.9461 34.359 17.174 34.0987L17.4028 33.8378L18.3927 34.7404C18.3927 34.7404 17.4403 35.3531 17.4191 35.3331C17.3997 35.3133 15.8667 34.9922 15.8667 34.9922L15.8674 34.9933Z" fill="#6B7B3E"/>
<path d="M15.8672 34.9933C16.7198 35.5137 17.2697 36.1294 17.2697 36.1294L18.3925 34.7404L15.8672 34.9933Z" fill="#4B5B19"/>
<path d="M33.432 12.1C33.432 12.1 33.0405 13.3974 33.0487 13.7729L33.0586 14.1487L31.6076 14.1574C31.6076 14.1574 31.916 12.9691 31.9452 12.9702C31.9755 12.9706 33.4302 12.0997 33.4302 12.0997L33.432 12.1Z" fill="#6B7B3E"/>
<path d="M33.4325 12.1C32.3712 12.3129 31.4816 12.2271 31.4816 12.2271L31.6089 14.1584L33.4325 12.1Z" fill="#4B5B19"/>
<path d="M35.0355 13.3242C35.0355 13.3242 34.644 14.6217 34.6522 14.9972L34.6621 15.373L33.2112 15.3816C33.2112 15.3816 33.5195 14.1933 33.5498 14.1937C33.58 14.1941 35.0348 13.3232 35.0348 13.3232L35.0355 13.3242Z" fill="#6B7B3E"/>
<path d="M35.036 13.3243C33.9747 13.5371 33.0851 13.4514 33.0851 13.4514L33.2124 15.3827L35.036 13.3243Z" fill="#4B5B19"/>
<path d="M34.8551 15.3514C34.8551 15.3514 34.1582 16.5133 34.0752 16.8804L33.9932 17.2469L32.5845 16.9012C32.5845 16.9012 33.1742 15.8243 33.2029 15.8333C33.2325 15.8416 34.8558 15.3525 34.8558 15.3525L34.8551 15.3514Z" fill="#6B7B3E"/>
<path d="M34.8558 15.3515C33.7754 15.2983 32.9328 14.9975 32.9328 14.9975L32.5835 16.9009L34.8565 15.3525L34.8558 15.3515Z" fill="#4B5B19"/>
<path d="M33.4026 14.6547C33.4026 14.6547 33.0017 15.9495 33.0089 16.3257L33.0161 16.7019L31.5651 16.7016C31.5651 16.7016 31.881 15.5156 31.9113 15.516C31.9423 15.5174 33.4026 14.6547 33.4026 14.6547Z" fill="#6B7B3E"/>
<path d="M33.4018 14.6547C32.3391 14.861 31.4498 14.7691 31.4498 14.7691L31.5643 16.7015L33.4008 14.6554L33.4018 14.6547Z" fill="#4B5B19"/>
<path d="M31.5699 12.151C31.5699 12.151 31.196 13.4545 31.2108 13.8285L31.2252 14.2043L29.7748 14.2335C29.7748 14.2335 30.0659 13.042 30.0972 13.0417C30.1274 13.0421 31.571 12.1503 31.571 12.1503L31.5699 12.151Z" fill="#6B7B3E"/>
<path d="M31.5692 12.151C30.5111 12.3796 29.6203 12.3052 29.6203 12.3052L29.7747 14.2345L31.5699 12.152L31.5692 12.151Z" fill="#4B5B19"/>
<path d="M29.6419 9.71236C29.6419 9.71236 29.7661 11.0621 29.9167 11.4066L30.0674 11.7511L28.7271 12.3054C28.7271 12.3054 28.5661 11.0889 28.5931 11.0779C28.6219 11.0673 29.6419 9.71236 29.6419 9.71236Z" fill="#6B7B3E"/>
<path d="M29.6428 9.71236C28.7397 10.3095 27.8821 10.5636 27.8821 10.5636L28.7263 12.3051L29.6428 9.71236Z" fill="#4B5B19"/>
<path d="M27.2534 9.42015C27.2534 9.42015 28.1195 10.4626 28.4375 10.663L28.756 10.8617L27.9633 12.0768C27.9633 12.0768 27.1422 11.1643 27.1594 11.139C27.1767 11.1137 27.2534 9.42015 27.2534 9.42015Z" fill="#6B7B3E"/>
<path d="M27.254 9.42015C26.8461 10.4227 26.2832 11.1182 26.2832 11.1182L27.9639 12.0768L27.254 9.42015Z" fill="#4B5B19"/>
<path d="M26.1635 10.7091C26.1635 10.7091 27.0296 11.7515 27.3477 11.9519L27.6661 12.1506L26.8734 13.3658C26.8734 13.3658 26.0523 12.4532 26.0703 12.429C26.0876 12.4037 26.1642 10.7101 26.1642 10.7101L26.1635 10.7091Z" fill="#6B7B3E"/>
<path d="M26.1641 10.7091C25.7563 11.7116 25.1933 12.4071 25.1933 12.4071L26.874 13.3658L26.1641 10.7091Z" fill="#4B5B19"/>
<path d="M29.9236 11.7504C29.9236 11.7504 29.6359 13.0747 29.6747 13.4489L29.7146 13.8223L28.2692 13.9471C28.2692 13.9471 28.4814 12.7389 28.5113 12.7365C28.5419 12.7352 29.9226 11.7511 29.9226 11.7511L29.9236 11.7504Z" fill="#6B7B3E"/>
<path d="M29.9245 11.7504C28.884 12.0466 27.9899 12.0315 27.9899 12.0315L28.2711 13.9464L29.9255 11.7497L29.9245 11.7504Z" fill="#4B5B19"/>
<path d="M27.8237 11.5118C27.8237 11.5118 26.6004 12.8237 26.1987 12.6922C25.7961 12.5614 25.6424 11.8754 25.6424 11.8754C25.6424 11.8754 25.2415 12.7186 24.7374 12.897C24.2332 13.0754 24.0094 12.2886 24.0094 12.2886L23.932 12.6354C23.8546 12.9822 23.6748 13.4737 23.3805 13.5812C23.0868 13.6897 22.6486 12.9935 22.6486 12.9935C22.6486 12.9935 22.8628 13.7133 22.3283 14.3339C21.7946 14.9555 20.9539 14.0188 20.9539 14.0188C20.9539 14.0188 21.1498 14.5486 21.2755 14.9776C21.3662 15.2848 21.3325 15.5899 21.1865 15.7809C21.2174 15.6368 21.228 15.5665 21.2097 15.5925C21.1748 15.6448 21.1424 15.7404 21.1075 15.8632C21.0642 15.8987 21.015 15.9277 20.9594 15.9475C20.6311 16.0602 19.7278 15.5712 19.7278 15.5712C19.7278 15.5712 20.6496 17.1533 20.4222 17.5288C20.3784 17.5856 20.3332 17.6404 20.2849 17.6928C19.629 18.3841 18.2568 17.8365 18.2568 17.8365C18.2568 17.8365 19.5824 19.3266 19.0612 19.7641C18.54 20.2017 17.2508 20.3222 17.2508 20.3222C17.2508 20.3222 19.0363 21.3355 18.6462 21.9808C18.2568 22.6272 17.0902 22.9387 17.0902 22.9387C17.0902 22.9387 17.1881 22.9635 17.7823 23.3314C18.3038 23.6543 18.439 24.0709 18.3159 24.5268C17.7262 25.1191 16.4989 24.8988 16.4989 24.8988C16.4989 24.8988 18.0967 26.0925 17.6752 26.6257C17.2537 27.1588 16.0138 27.5368 16.0138 27.5368C16.0138 27.5368 17.9661 28.1694 17.7142 28.8811C17.4623 29.5928 16.3819 30.1322 16.3819 30.1322C16.3819 30.1322 16.4827 30.1371 17.1386 30.3774C17.4714 30.5004 17.683 30.6788 17.7983 30.8988C17.8017 30.994 17.7986 31.0997 17.7822 31.2143C17.7029 31.783 16.5151 31.6603 16.5151 31.6603C16.5151 31.6603 17.6306 32.3244 17.7062 32.9045C17.7818 33.4846 16.4159 33.7834 16.4159 33.7834C16.4159 33.7834 17.9426 34.3683 17.9194 34.8012C17.8952 35.2348 16.9221 36.2908 16.9727 36.3298C17.0233 36.3689 18.3952 36.2926 18.3952 36.2926L17.3856 37.6914L18.5366 37.4715L17.4774 39.5178L18.9643 39.2161L18.3437 41.3313L20.031 40.8196L19.9474 41.9568L20.5589 41.8103C20.5589 41.8103 22.4451 44.749 24.2377 44.8872C28.2179 45.1932 32.6557 42.0893 33.9874 34.4411C34.4122 32.0032 34.5446 27.1689 34.5401 26.1382C34.5276 23.4041 33.7351 19.6305 33.2668 18.4716C30.957 12.7593 28.4911 12.5245 28.0409 12.5927C27.5906 12.6608 27.8185 11.5108 27.8185 11.5108L27.8237 11.5118Z" fill="#FFE6C1"/>
<path d="M20.4209 21.2815C19.6325 23.6415 18.9893 29.0187 19.1272 31.1484C19.2643 33.277 19.2862 35.7077 20.0703 37.3235C20.8544 38.9394 22.4565 41.1129 22.69 42.0086C22.9235 42.9042 23.962 44.8209 25.5342 44.3426C27.107 43.8654 27.7391 43.5864 30.048 40.7248C32.3557 37.864 33.3812 35.3741 33.4648 32.8581C33.5491 30.3431 33.131 28.769 33.1003 27.1425C33.0542 24.6188 31.8817 17.3801 29.1552 14.3026C27.871 12.8534 23.6753 11.533 20.4196 21.2794L20.4209 21.2815Z" fill="#F4C895"/>
<path d="M20.1407 30.1357C20.1407 30.1357 20.1017 35.3294 20.5494 36.6254C20.997 37.9213 22.4319 39.6115 22.8678 40.4099C23.3036 41.2083 23.7243 42.143 23.9086 42.7331C24.093 43.3231 24.8715 44.0937 25.7364 43.575C26.6014 43.0563 27.9112 41.3735 28.9791 40.0008C30.0478 38.6292 31.627 36.6173 31.9035 35.7523C32.18 34.8873 32.1815 33.524 32.3401 31.4595C32.4976 29.3957 32.3102 27.744 32.3553 27.2617C32.5519 25.1517 31.538 20.7382 31.538 20.7382L22.312 30.6536L20.1417 30.135L20.1407 30.1357Z" fill="#E77F40"/>
<path d="M24.6346 42.6826C24.8953 42.9266 25.2915 42.9553 25.5859 42.7532C26.5926 42.066 26.4315 41.5606 29.6964 37.5918C31.218 35.742 31.6336 32.9294 31.6251 31.3883C31.6159 29.8462 32.385 26.3982 31.9079 22.3961C31.4308 18.3941 29.3793 14.9484 28.1951 14.2562C27.2873 13.7253 23.0463 13.4815 21.3892 19.5178C19.7322 25.5542 19.8753 29.3126 20.0939 32.259C20.3125 35.2053 20.615 36.7816 22.659 39.2602C24.8909 41.9664 23.9937 42.0854 24.6336 42.6833L24.6346 42.6826Z" fill="#FFCA00"/>
<path d="M24.0137 15.7754C23.6542 16.1838 23.3542 16.6507 23.0941 17.128C22.0231 19.0863 21.5086 21.3287 21.6217 23.5322C21.6918 24.9083 22.1543 26.0696 22.7566 27.2842C23.2862 28.3502 24.831 28.3317 25.7832 27.8331C26.7313 27.3374 27.3251 26.3612 27.7615 25.3918C29.087 22.4545 29.7635 18.7319 28.2563 15.7946C27.8978 15.0966 27.3841 14.5493 26.5427 14.5013C25.9687 14.4692 25.3949 14.671 24.9093 14.9868C24.5724 15.2058 24.2759 15.4753 24.012 15.7751L24.0137 15.7754Z" fill="#FFDF82"/>
<path d="M20.9994 35.724C20.9973 35.7824 21.002 35.8422 21.0132 35.9006C21.0719 36.2267 21.2445 36.5728 21.3888 36.8705C21.5683 37.2419 21.7803 37.5971 22.0199 37.9335C22.8924 39.1636 23.9058 40.0171 24.1294 40.7771C24.353 41.537 24.616 42.249 25.0961 42.1081C25.5744 41.9667 26.1471 40.7965 26.9746 39.6942C27.8021 38.5919 29.241 36.9621 29.7297 35.9196C30.2173 34.8777 30.5553 32.559 30.65 31.5043C30.7447 30.4495 30.9355 28.6857 31.0072 27.8041C31.0796 26.9236 30.2751 27.0575 29.4985 30.1266C28.7219 33.1957 27.6506 35.1647 26.3117 36.4744C25.6806 37.0918 24.7999 37.3782 23.9259 37.3044C23.5806 37.2755 23.2328 37.1943 22.92 37.0413C22.4953 36.834 22.2633 36.4429 21.966 36.0858C21.7836 35.8664 21.5992 35.6485 21.4113 35.4344C21.3578 35.3734 21.2866 35.3063 21.2076 35.3226C21.1603 35.3323 21.1245 35.3702 21.0974 35.4097C21.0354 35.5014 21.0066 35.6111 21.0022 35.7236L20.9994 35.724Z" fill="#FFB41A"/>
<path d="M20.9518 32.444C20.8192 32.3948 20.6736 32.4805 20.6516 32.62C20.6205 32.8167 20.674 33.1088 21.0993 33.4028C21.8411 33.9147 23.4518 34.3344 23.8549 34.0628C24.2591 33.7905 23.8644 33.5372 23.1723 33.422C22.4809 33.3078 21.9671 33.1658 21.6588 32.9467C21.3505 32.7275 21.1026 32.5003 20.9552 32.4447C20.9545 32.4436 20.9528 32.4433 20.9511 32.443L20.9518 32.444Z" fill="#FFB41A"/>
<path d="M21.2401 34.2567C21.3998 34.4074 22.6515 35.0116 22.9883 35.0523C23.3261 35.0922 23.197 35.2222 23.0561 35.2597C22.9151 35.2972 22.1569 35.0035 21.6413 34.6915C21.1257 34.3796 20.9204 34.2809 20.9717 34.2129C21.023 34.145 21.2401 34.2567 21.2401 34.2567Z" fill="#FFB41A"/>
<path d="M27.0907 31.8606C27.8188 32.1013 29.4405 32.2134 30.1603 31.9001C30.8791 31.5876 31.1637 29.8798 30.6687 29.9439C30.1727 30.0087 29.3191 30.9053 28.4178 30.9566C27.5166 31.0079 26.9576 31.0705 26.8025 31.3472C26.6474 31.6239 26.9513 31.8145 27.0907 31.8606Z" fill="#FFB41A"/>
<path d="M20.8031 27.9348C20.8031 27.9348 20.7914 30.0343 20.8952 30.7483C20.9989 31.4623 22.042 32.3811 22.9098 32.4592C23.7776 32.5372 25.4584 31.6368 25.7727 30.2944C26.0881 28.9513 25.0136 28.9046 23.7707 28.776C22.5278 28.6474 21.9232 26.8148 21.3883 26.807C20.8534 26.7993 20.8014 27.9345 20.8014 27.9345L20.8031 27.9348Z" fill="#FFDF82"/>
</svg>
